<svg width="440" height="956" viewBox="0 0 440 956" fill="none" xmlns="http://www.w3.org/2000/svg">
<g clip-path="url(#clip0_255_68)">
<rect width="440" height="956" rx="62" fill="#1C1C1C"/>
<rect width="440" height="86" transform="matrix(1 0 0 -1 2 956)" fill="#2B2B2B"/>
<path d="M114.527 937V929.031H111.407V927.9H118.934V929.031H115.814V937H114.527ZM120.168 937V930.11H121.416V937H120.168ZM120.792 928.784C120.55 928.784 120.346 928.706 120.181 928.55C120.025 928.394 119.947 928.203 119.947 927.978C119.947 927.744 120.025 927.549 120.181 927.393C120.346 927.237 120.55 927.159 120.792 927.159C121.035 927.159 121.234 927.237 121.39 927.393C121.555 927.54 121.637 927.727 121.637 927.952C121.637 928.186 121.559 928.385 121.403 928.55C121.247 928.706 121.044 928.784 120.792 928.784ZM123.799 937V930.11H124.995V931.943L124.8 931.475C125.017 931.024 125.351 930.673 125.801 930.422C126.252 930.171 126.776 930.045 127.374 930.045C128.033 930.045 128.601 930.21 129.077 930.539C129.554 930.86 129.866 931.349 130.013 932.008L129.506 931.8C129.714 931.271 130.078 930.847 130.598 930.526C131.118 930.205 131.725 930.045 132.418 930.045C132.973 930.045 133.463 930.153 133.887 930.37C134.312 930.587 134.641 930.916 134.875 931.358C135.118 931.8 135.239 932.359 135.239 933.035V937H133.991V933.178C133.991 932.511 133.835 932.008 133.523 931.67C133.211 931.332 132.774 931.163 132.21 931.163C131.794 931.163 131.43 931.25 131.118 931.423C130.806 931.596 130.564 931.852 130.39 932.19C130.226 932.528 130.143 932.948 130.143 933.451V937H128.895V933.178C128.895 932.511 128.739 932.008 128.427 931.67C128.124 931.332 127.686 931.163 127.114 931.163C126.707 931.163 126.347 931.25 126.035 931.423C125.723 931.596 125.481 931.852 125.307 932.19C125.134 932.528 125.047 932.948 125.047 933.451V937H123.799ZM140.604 937.078C139.867 937.078 139.217 936.926 138.654 936.623C138.099 936.32 137.666 935.904 137.354 935.375C137.05 934.846 136.899 934.24 136.899 933.555C136.899 932.87 137.046 932.264 137.341 931.735C137.644 931.206 138.056 930.795 138.576 930.5C139.104 930.197 139.698 930.045 140.357 930.045C141.024 930.045 141.613 930.192 142.125 930.487C142.636 930.782 143.035 931.198 143.321 931.735C143.615 932.264 143.763 932.883 143.763 933.594C143.763 933.646 143.758 933.707 143.75 933.776C143.75 933.845 143.745 933.91 143.737 933.971H137.874V933.074H143.087L142.58 933.386C142.588 932.944 142.497 932.55 142.307 932.203C142.116 931.856 141.852 931.588 141.514 931.397C141.184 931.198 140.799 931.098 140.357 931.098C139.923 931.098 139.538 931.198 139.2 931.397C138.862 931.588 138.597 931.861 138.407 932.216C138.216 932.563 138.121 932.961 138.121 933.412V933.62C138.121 934.079 138.225 934.491 138.433 934.855C138.649 935.21 138.948 935.488 139.33 935.687C139.711 935.886 140.149 935.986 140.643 935.986C141.05 935.986 141.418 935.917 141.748 935.778C142.086 935.639 142.38 935.431 142.632 935.154L143.321 935.96C143.009 936.324 142.619 936.601 142.151 936.792C141.691 936.983 141.176 937.078 140.604 937.078ZM145.496 937V930.11H146.692V931.982L146.575 931.514C146.765 931.037 147.086 930.673 147.537 930.422C147.987 930.171 148.542 930.045 149.201 930.045V931.254C149.149 931.245 149.097 931.241 149.045 931.241C149.001 931.241 148.958 931.241 148.915 931.241C148.247 931.241 147.719 931.44 147.329 931.839C146.939 932.238 146.744 932.814 146.744 933.568V937H145.496Z" fill="#ECEBE4"/>
<path fill-rule="evenodd" clip-rule="evenodd" d="M123.851 887.14C123.825 887.404 123.812 887.691 123.812 888C123.812 888.309 123.825 888.596 123.851 888.86C124.05 890.98 125.957 891.93 127.578 891.97C128.025 891.98 128.565 891.989 129.218 891.995V922.667C129.218 923.02 129.36 923.359 129.614 923.609C129.867 923.86 130.211 924 130.569 924C133.553 924 136.487 923.251 139.096 921.822C141.705 920.393 143.902 918.333 145.48 915.835C147.058 913.337 147.965 910.483 148.116 907.544C148.267 904.604 147.657 901.675 146.343 899.032C146.828 898.549 147.307 898.06 147.78 897.565C149.05 896.234 149.58 894.12 148.124 892.417C147.806 892.047 147.473 891.691 147.124 891.35C146.778 891.006 146.417 890.677 146.043 890.364C144.316 888.927 142.174 889.449 140.823 890.702C140.49 891.012 140.1 891.381 139.643 891.824C138.715 891.272 137.737 890.805 136.721 890.431C137.024 890.004 137.229 889.483 137.288 888.86C137.313 888.596 137.326 888.309 137.327 888C137.326 887.691 137.313 887.404 137.288 887.14C137.089 885.02 135.181 884.07 133.561 884.03C132.836 884.012 131.865 884 130.569 884C129.274 884 128.302 884.012 127.578 884.03C125.956 884.07 124.05 885.02 123.851 887.14ZM118.564 894.311C118.343 894.52 118.127 894.733 117.916 894.95C116.844 896.055 117.012 897.599 118.022 898.647C118.492 899.136 118.976 899.612 119.471 900.076C120.534 901.072 122.098 901.24 123.219 900.181C123.439 899.973 123.655 899.759 123.867 899.541C124.939 898.436 124.77 896.893 123.76 895.845C123.29 895.357 122.806 894.88 122.311 894.415C121.248 893.42 119.684 893.252 118.564 894.311ZM113 906.667C113 906.492 113.002 906.327 113.005 906.173C113.038 904.62 114.271 903.601 115.776 903.565C116.328 903.552 116.88 903.552 117.432 903.565C118.937 903.601 120.17 904.62 120.202 906.173C120.209 906.502 120.209 906.831 120.202 907.16C120.17 908.714 118.937 909.732 117.432 909.768C116.88 909.781 116.328 909.781 115.776 909.768C114.271 909.732 113.038 908.713 113.005 907.16C113.002 906.996 113 906.831 113 906.667ZM123.866 914.045C123.655 913.828 123.439 913.615 123.218 913.406C122.098 912.348 120.534 912.515 119.472 913.51C118.976 913.975 118.492 914.452 118.021 914.941C117.012 915.989 116.844 917.532 117.916 918.637C118.127 918.855 118.343 919.069 118.564 919.277C119.684 920.335 121.249 920.168 122.311 919.172C122.807 918.708 123.29 918.231 123.761 917.742C124.77 916.693 124.939 915.15 123.867 914.045" fill="#ECEBE4"/>
<path d="M267.176 937.104C266.482 937.104 265.819 937 265.187 936.792C264.554 936.575 264.056 936.298 263.692 935.96L264.173 934.946C264.519 935.249 264.961 935.501 265.499 935.7C266.036 935.899 266.595 935.999 267.176 935.999C267.704 935.999 268.133 935.938 268.463 935.817C268.792 935.696 269.035 935.531 269.191 935.323C269.347 935.106 269.425 934.864 269.425 934.595C269.425 934.283 269.321 934.032 269.113 933.841C268.913 933.65 268.649 933.499 268.32 933.386C267.999 933.265 267.644 933.161 267.254 933.074C266.864 932.987 266.469 932.888 266.071 932.775C265.681 932.654 265.321 932.502 264.992 932.32C264.671 932.138 264.411 931.895 264.212 931.592C264.012 931.28 263.913 930.881 263.913 930.396C263.913 929.928 264.034 929.499 264.277 929.109C264.528 928.71 264.909 928.394 265.421 928.16C265.941 927.917 266.599 927.796 267.397 927.796C267.925 927.796 268.45 927.865 268.97 928.004C269.49 928.143 269.94 928.342 270.322 928.602L269.893 929.642C269.503 929.382 269.091 929.196 268.658 929.083C268.224 928.962 267.804 928.901 267.397 928.901C266.885 928.901 266.465 928.966 266.136 929.096C265.806 929.226 265.564 929.399 265.408 929.616C265.26 929.833 265.187 930.075 265.187 930.344C265.187 930.665 265.286 930.92 265.486 931.111C265.694 931.302 265.958 931.453 266.279 931.566C266.608 931.679 266.968 931.783 267.358 931.878C267.748 931.965 268.138 932.064 268.528 932.177C268.926 932.29 269.286 932.437 269.607 932.619C269.936 932.801 270.2 933.044 270.4 933.347C270.599 933.65 270.699 934.04 270.699 934.517C270.699 934.976 270.573 935.405 270.322 935.804C270.07 936.194 269.68 936.51 269.152 936.753C268.632 936.987 267.973 937.104 267.176 937.104ZM275.315 937.078C274.726 937.078 274.206 936.97 273.755 936.753C273.313 936.536 272.966 936.207 272.715 935.765C272.472 935.314 272.351 934.751 272.351 934.075V930.11H273.599V933.932C273.599 934.608 273.759 935.115 274.08 935.453C274.409 935.791 274.869 935.96 275.458 935.96C275.891 935.96 276.268 935.873 276.589 935.7C276.91 935.518 277.157 935.258 277.33 934.92C277.503 934.573 277.59 934.157 277.59 933.672V930.11H278.838V937H277.655V935.141L277.85 935.635C277.625 936.094 277.287 936.45 276.836 936.701C276.385 936.952 275.878 937.078 275.315 937.078ZM281.214 937V930.11H282.41V931.943L282.215 931.475C282.431 931.024 282.765 930.673 283.216 930.422C283.666 930.171 284.191 930.045 284.789 930.045C285.447 930.045 286.015 930.21 286.492 930.539C286.968 930.86 287.28 931.349 287.428 932.008L286.921 931.8C287.129 931.271 287.493 930.847 288.013 930.526C288.533 930.205 289.139 930.045 289.833 930.045C290.387 930.045 290.877 930.153 291.302 930.37C291.726 930.587 292.056 930.916 292.29 931.358C292.532 931.8 292.654 932.359 292.654 933.035V937H291.406V933.178C291.406 932.511 291.25 932.008 290.938 931.67C290.626 931.332 290.188 931.163 289.625 931.163C289.209 931.163 288.845 931.25 288.533 931.423C288.221 931.596 287.978 931.852 287.805 932.19C287.64 932.528 287.558 932.948 287.558 933.451V937H286.31V933.178C286.31 932.511 286.154 932.008 285.842 931.67C285.538 931.332 285.101 931.163 284.529 931.163C284.121 931.163 283.762 931.25 283.45 931.423C283.138 931.596 282.895 931.852 282.722 932.19C282.548 932.528 282.462 932.948 282.462 933.451V937H281.214ZM294.95 937V930.11H296.146V931.943L295.951 931.475C296.168 931.024 296.501 930.673 296.952 930.422C297.403 930.171 297.927 930.045 298.525 930.045C299.184 930.045 299.751 930.21 300.228 930.539C300.705 930.86 301.017 931.349 301.164 932.008L300.657 931.8C300.865 931.271 301.229 930.847 301.749 930.526C302.269 930.205 302.876 930.045 303.569 930.045C304.124 930.045 304.613 930.153 305.038 930.37C305.463 930.587 305.792 930.916 306.026 931.358C306.269 931.8 306.39 932.359 306.39 933.035V937H305.142V933.178C305.142 932.511 304.986 932.008 304.674 931.67C304.362 931.332 303.924 931.163 303.361 931.163C302.945 931.163 302.581 931.25 302.269 931.423C301.957 931.596 301.714 931.852 301.541 932.19C301.376 932.528 301.294 932.948 301.294 933.451V937H300.046V933.178C300.046 932.511 299.89 932.008 299.578 931.67C299.275 931.332 298.837 931.163 298.265 931.163C297.858 931.163 297.498 931.25 297.186 931.423C296.874 931.596 296.631 931.852 296.458 932.19C296.285 932.528 296.198 932.948 296.198 933.451V937H294.95ZM312.963 937V935.544L312.898 935.271V932.788C312.898 932.259 312.742 931.852 312.43 931.566C312.127 931.271 311.668 931.124 311.052 931.124C310.645 931.124 310.246 931.193 309.856 931.332C309.466 931.462 309.137 931.64 308.868 931.865L308.348 930.929C308.704 930.643 309.128 930.426 309.622 930.279C310.125 930.123 310.649 930.045 311.195 930.045C312.14 930.045 312.868 930.275 313.379 930.734C313.891 931.193 314.146 931.895 314.146 932.84V937H312.963ZM310.701 937.078C310.19 937.078 309.739 936.991 309.349 936.818C308.968 936.645 308.673 936.406 308.465 936.103C308.257 935.791 308.153 935.44 308.153 935.05C308.153 934.677 308.24 934.339 308.413 934.036C308.595 933.733 308.886 933.49 309.284 933.308C309.692 933.126 310.238 933.035 310.922 933.035H313.106V933.932H310.974C310.35 933.932 309.93 934.036 309.713 934.244C309.497 934.452 309.388 934.703 309.388 934.998C309.388 935.336 309.523 935.609 309.791 935.817C310.06 936.016 310.433 936.116 310.909 936.116C311.377 936.116 311.785 936.012 312.131 935.804C312.487 935.596 312.742 935.293 312.898 934.894L313.145 935.752C312.981 936.159 312.69 936.484 312.274 936.727C311.858 936.961 311.334 937.078 310.701 937.078ZM316.456 937V930.11H317.652V931.982L317.535 931.514C317.726 931.037 318.046 930.673 318.497 930.422C318.948 930.171 319.502 930.045 320.161 930.045V931.254C320.109 931.245 320.057 931.241 320.005 931.241C319.962 931.241 319.918 931.241 319.875 931.241C319.208 931.241 318.679 931.44 318.289 931.839C317.899 932.238 317.704 932.814 317.704 933.568V937H316.456ZM322.062 939.6C321.732 939.6 321.412 939.544 321.1 939.431C320.788 939.327 320.519 939.171 320.294 938.963L320.827 938.027C321 938.192 321.191 938.317 321.399 938.404C321.607 938.491 321.828 938.534 322.062 938.534C322.365 938.534 322.616 938.456 322.816 938.3C323.015 938.144 323.201 937.867 323.375 937.468L323.804 936.519L323.934 936.363L326.638 930.11H327.86L324.519 937.689C324.319 938.174 324.094 938.556 323.843 938.833C323.6 939.11 323.331 939.305 323.037 939.418C322.742 939.539 322.417 939.6 322.062 939.6ZM323.7 937.221L320.554 930.11H321.854L324.532 936.246L323.7 937.221Z" fill="#A5ACA0"/>
<path d="M301.152 887.857H304.979C306.075 887.857 307.126 888.283 307.901 889.042C308.676 889.802 309.111 890.831 309.111 891.904V902.144C307.614 902.149 306.12 902.715 304.986 903.843L296.166 912.618H286.021C285.699 912.618 285.389 912.743 285.161 912.967C284.934 913.19 284.806 913.493 284.806 913.808C284.806 914.124 284.934 914.427 285.161 914.65C285.389 914.873 285.699 914.999 286.021 914.999H293.773L291.849 916.913C291.25 917.509 290.822 918.248 290.608 919.058L289.793 922.138C289.709 922.462 289.666 922.781 289.665 923.094H282.132C281.036 923.094 279.985 922.667 279.21 921.908C278.435 921.149 278 920.12 278 919.046V891.904C278 890.831 278.435 889.802 279.21 889.042C279.985 888.283 281.036 887.857 282.132 887.857H285.96C286.22 887.03 286.743 886.306 287.454 885.791C288.165 885.277 289.026 885 289.91 885H297.201C298.085 885 298.946 885.277 299.657 885.791C300.368 886.306 300.892 887.03 301.152 887.857ZM288.208 889.047C288.208 889.967 288.971 890.714 289.91 890.714H297.201C297.425 890.714 297.646 890.671 297.852 890.587C298.059 890.503 298.246 890.381 298.404 890.226C298.562 890.071 298.688 889.887 298.773 889.685C298.859 889.483 298.903 889.266 298.903 889.047C298.903 888.829 298.859 888.612 298.773 888.41C298.688 888.207 298.562 888.024 298.404 887.869C298.246 887.714 298.059 887.591 297.852 887.508C297.646 887.424 297.425 887.381 297.201 887.381H289.91C289.458 887.381 289.026 887.556 288.707 887.869C288.388 888.182 288.208 888.605 288.208 889.047ZM284.806 900.476C284.806 901.133 285.35 901.666 286.021 901.666H301.09C301.25 901.666 301.408 901.635 301.555 901.575C301.703 901.516 301.837 901.428 301.95 901.317C302.062 901.207 302.152 901.076 302.213 900.931C302.274 900.787 302.306 900.632 302.306 900.476C302.306 900.319 302.274 900.164 302.213 900.02C302.152 899.876 302.062 899.744 301.95 899.634C301.837 899.523 301.703 899.436 301.555 899.376C301.408 899.316 301.25 899.285 301.09 899.285H286.021C285.35 899.285 284.806 899.818 284.806 900.476ZM286.021 905.951C285.699 905.951 285.389 906.077 285.161 906.3C284.934 906.523 284.806 906.826 284.806 907.142C284.806 907.458 284.934 907.76 285.161 907.984C285.389 908.207 285.699 908.332 286.021 908.332H293.312C293.635 908.332 293.944 908.207 294.172 907.984C294.4 907.76 294.528 907.458 294.528 907.142C294.528 906.826 294.4 906.523 294.172 906.3C293.944 906.077 293.635 905.951 293.312 905.951H286.021ZM311.866 905.159C311.505 904.805 311.076 904.525 310.604 904.334C310.131 904.143 309.625 904.046 309.114 904.048C308.604 904.05 308.098 904.151 307.627 904.345C307.157 904.54 306.73 904.823 306.371 905.18L293.236 918.249C292.876 918.606 292.619 919.05 292.49 919.536L291.675 922.616C291.303 924.022 292.61 925.301 294.045 924.937L297.19 924.138C297.685 924.012 298.138 923.761 298.503 923.409L311.845 910.542C312.209 910.191 312.498 909.773 312.697 909.312C312.895 908.851 312.998 908.356 313 907.855C313.002 907.355 312.903 906.859 312.708 906.397C312.514 905.934 312.228 905.514 311.866 905.16" fill="#A5ACA0"/>
<circle cx="220.5" cy="328.5" r="124.75" stroke="#2B2B2B" stroke-width="21.5"/>
<path d="M220.5 203.75C245.173 203.75 269.292 211.066 289.807 224.774C310.322 238.482 326.312 257.965 335.754 280.76C345.196 303.555 347.666 328.638 342.853 352.838C338.039 377.037 326.158 399.265 308.712 416.712C291.265 434.158 269.037 446.039 244.838 450.853C220.638 455.666 195.555 453.196 172.76 443.754C149.965 434.312 130.482 418.322 116.774 397.807C103.066 377.292 95.75 353.173 95.75 328.5" stroke="#5EAE45" stroke-width="21.5" stroke-linecap="round"/>
<rect x="157" y="11" width="125" height="37" rx="18.5" fill="black"/>
<path d="M37.7058 22.7231C38.3477 22.7231 38.9565 22.8421 39.532 23.0801C40.1075 23.3125 40.6166 23.6777 41.0593 24.1758C41.5076 24.6683 41.859 25.3019 42.1135 26.0767C42.3681 26.8459 42.4954 27.7728 42.4954 28.8574V28.874C42.4954 30.2188 42.3017 31.3698 41.9143 32.3271C41.5269 33.2845 40.9708 34.0205 40.2458 34.5352C39.5264 35.0443 38.6659 35.2988 37.6643 35.2988C36.9283 35.2988 36.2642 35.166 35.6721 34.9004C35.0855 34.6292 34.5985 34.2585 34.2112 33.7881C33.8293 33.3122 33.572 32.7699 33.4392 32.1611L33.4226 32.0698H35.5227L35.5559 32.1528C35.661 32.4295 35.8105 32.673 36.0041 32.8833C36.2034 33.0936 36.4413 33.2568 36.718 33.373C37.0002 33.4837 37.3157 33.5391 37.6643 33.5391C38.2952 33.5391 38.8098 33.3537 39.2082 32.9829C39.6122 32.6066 39.9138 32.1058 40.113 31.4805C40.3178 30.8496 40.434 30.1523 40.4617 29.3887C40.4672 29.3057 40.47 29.2254 40.47 29.1479C40.47 29.0649 40.47 28.9847 40.47 28.9072L40.0964 26.9067C40.0964 26.453 39.9913 26.0407 39.781 25.6699C39.5707 25.2992 39.2857 25.0059 38.926 24.79C38.5718 24.5742 38.1706 24.4663 37.7224 24.4663C37.2908 24.4663 36.8951 24.5715 36.5354 24.7817C36.1757 24.992 35.8879 25.2798 35.6721 25.645C35.4563 26.0047 35.3484 26.4087 35.3484 26.8569V26.8735C35.3484 27.3384 35.4508 27.7507 35.6555 28.1104C35.8603 28.4645 36.1397 28.744 36.4939 28.9487C36.8481 29.1535 37.252 29.2559 37.7058 29.2559C38.1596 29.2559 38.5663 29.1562 38.926 28.957C39.2857 28.7578 39.5707 28.4811 39.781 28.127C39.9913 27.7728 40.0964 27.3716 40.0964 26.9233V26.9067H40.5945V29.1147H40.3039C40.1601 29.4302 39.947 29.7235 39.6648 29.9946C39.3826 30.2658 39.0339 30.4844 38.6189 30.6504C38.2094 30.8164 37.7279 30.8994 37.1746 30.8994C36.4109 30.8994 35.7357 30.7279 35.1492 30.3848C34.5626 30.0417 34.1005 29.5713 33.7629 28.9736C33.4309 28.376 33.2649 27.7008 33.2649 26.9482V26.9316C33.2649 26.1182 33.453 25.396 33.8293 24.7651C34.2112 24.1287 34.7369 23.6307 35.4065 23.271C36.0816 22.9058 36.8481 22.7231 37.7058 22.7231ZM45.9239 33.3896C45.5476 33.3896 45.2322 33.2651 44.9776 33.0161C44.7286 32.7616 44.6041 32.4517 44.6041 32.0864C44.6041 31.7157 44.7286 31.4058 44.9776 31.1567C45.2322 30.9022 45.5476 30.7749 45.9239 30.7749C46.3057 30.7749 46.6212 30.9022 46.8702 31.1567C47.1192 31.4058 47.2437 31.7157 47.2437 32.0864C47.2437 32.4517 47.1192 32.7616 46.8702 33.0161C46.6212 33.2651 46.3057 33.3896 45.9239 33.3896ZM45.9239 27.2305C45.5476 27.2305 45.2322 27.106 44.9776 26.8569C44.7286 26.6024 44.6041 26.2925 44.6041 25.9272C44.6041 25.5565 44.7286 25.2466 44.9776 24.9976C45.2322 24.743 45.5476 24.6157 45.9239 24.6157C46.3057 24.6157 46.6212 24.743 46.8702 24.9976C47.1192 25.2466 47.2437 25.5565 47.2437 25.9272C47.2437 26.2925 47.1192 26.6024 46.8702 26.8569C46.6212 27.106 46.3057 27.2305 45.9239 27.2305ZM53.9179 35.2407C53.0435 35.2407 52.2771 35.0941 51.6186 34.8008C50.9656 34.5075 50.4482 34.1007 50.0663 33.5806C49.69 33.0549 49.4742 32.4489 49.4189 31.7627L49.4106 31.6631H51.4526L51.4609 31.7544C51.4996 32.092 51.6241 32.3936 51.8344 32.6592C52.0447 32.9193 52.3269 33.124 52.6811 33.2734C53.0352 33.4173 53.4475 33.4893 53.9179 33.4893C54.3772 33.4893 54.7784 33.409 55.1215 33.2485C55.4701 33.0881 55.7413 32.8667 55.935 32.5845C56.1287 32.3022 56.2255 31.9757 56.2255 31.605V31.5884C56.2255 30.9575 56.0069 30.4733 55.5697 30.1357C55.1326 29.7982 54.5294 29.6294 53.7602 29.6294H52.3407V28.0356H53.7187C54.1558 28.0356 54.5404 27.9582 54.8725 27.8032C55.2045 27.6483 55.4618 27.438 55.6445 27.1724C55.8271 26.9012 55.9184 26.5913 55.9184 26.2427V26.2261C55.9184 25.8553 55.8381 25.5399 55.6777 25.2798C55.5227 25.0197 55.2931 24.8205 54.9887 24.6821C54.6899 24.5438 54.3274 24.4746 53.9013 24.4746C53.4807 24.4746 53.1072 24.5465 52.7807 24.6904C52.4597 24.8343 52.2024 25.0391 52.0087 25.3047C51.815 25.5648 51.6988 25.8719 51.6601 26.2261L51.6518 26.3091H49.6679L49.6762 26.2095C49.7371 25.5177 49.9474 24.9173 50.3071 24.4082C50.6723 23.8936 51.1593 23.4951 51.768 23.2129C52.3822 22.9251 53.0933 22.7812 53.9013 22.7812C54.7258 22.7812 55.4425 22.9168 56.0512 23.188C56.6599 23.4536 57.1303 23.8216 57.4623 24.292C57.7999 24.7624 57.9687 25.313 57.9687 25.9438V25.9604C57.9687 26.453 57.858 26.8901 57.6366 27.272C57.4208 27.6483 57.122 27.9609 56.7402 28.21C56.3639 28.459 55.935 28.6333 55.4535 28.7329V28.7744C56.339 28.8574 57.0501 29.1507 57.5868 29.6543C58.1236 30.1523 58.392 30.8164 58.392 31.6465V31.6631C58.392 32.3604 58.2039 32.9801 57.8276 33.5225C57.4513 34.0592 56.9255 34.4798 56.2504 34.7842C55.5808 35.0885 54.8033 35.2407 53.9179 35.2407ZM60.3596 35V33.5557L64.2859 29.5381C64.8282 28.9902 65.2488 28.5392 65.5476 28.1851C65.852 27.8254 66.065 27.5099 66.1868 27.2388C66.3085 26.9621 66.3694 26.6715 66.3694 26.3672V26.3423C66.3694 25.9771 66.2892 25.6506 66.1287 25.3628C65.9682 25.075 65.7385 24.8509 65.4397 24.6904C65.1409 24.5244 64.7839 24.4414 64.3689 24.4414C63.9483 24.4414 63.5776 24.5299 63.2566 24.707C62.9356 24.8786 62.6866 25.1193 62.5095 25.4292C62.3324 25.7391 62.2439 26.1016 62.2439 26.5166L62.2356 26.5498L60.2434 26.5415L60.2351 26.5166C60.2351 25.7695 60.415 25.111 60.7747 24.541C61.1344 23.971 61.6324 23.5256 62.2688 23.2046C62.9052 22.8836 63.6412 22.7231 64.4768 22.7231C65.2516 22.7231 65.9405 22.8698 66.5437 23.1631C67.1524 23.4564 67.6283 23.8604 67.9714 24.375C68.3145 24.8896 68.4861 25.4845 68.4861 26.1597V26.1846C68.4861 26.6328 68.4003 27.0728 68.2288 27.5044C68.0572 27.9305 67.7639 28.3981 67.3489 28.9072C66.9394 29.4163 66.3722 30.0223 65.6472 30.7251L62.6838 33.6055L63.2483 32.6592V33.6055L62.6838 33.2319H68.6687V35H60.3596Z" fill="white"/>
<g clip-path="url(#clip1_255_68)">
<path fill-rule="evenodd" clip-rule="evenodd" d="M353.355 38.7671C353.181 38.4203 352.901 38.1235 352.838 38.0569C352.713 37.924 352.529 37.7535 352.281 37.5849C351.779 37.2444 351.027 36.9207 350 36.9207C348.974 36.9207 348.221 37.2444 347.72 37.5849C347.471 37.7535 347.287 37.924 347.162 38.0569C347.111 38.1108 347.063 38.1669 347.017 38.225C346.999 38.247 346.84 38.4203 346.645 38.7671L350 42.0156L353.355 38.7671Z" fill="white"/>
<path fill-rule="evenodd" clip-rule="evenodd" d="M356.944 35.3402C356.944 35.3402 356.616 34.9205 356.3 34.5636C356.054 34.2866 355.557 33.837 355.032 33.4815C353.975 32.7658 352.41 32.0424 350 32.0424C347.59 32.0424 346.025 32.7658 344.968 33.4815C344.443 33.837 344.114 34.1163 343.784 34.4732C343.454 34.83 343.056 35.3402 343.056 35.3402L345.38 37.5798L345.833 37.0716L345.84 37.0633C345.849 37.0547 345.863 37.0398 345.883 37.0197C345.946 36.9582 346.01 36.8991 346.076 36.8422C346.253 36.6907 346.52 36.4839 346.875 36.2758C347.584 35.8605 348.634 35.4424 350 35.4424C351.366 35.4424 352.416 35.8605 353.125 36.2758C353.48 36.4839 353.748 36.6907 353.924 36.8422C353.99 36.8991 354.055 36.9582 354.117 37.0197C354.137 37.0398 354.152 37.0547 354.16 37.0633L354.168 37.0716L354.168 37.072L354.62 37.5798L356.944 35.3402Z" fill="white"/>
<path fill-rule="evenodd" clip-rule="evenodd" d="M360.503 31.8969C360.503 31.8969 360.318 31.5539 360.017 31.2206C359.836 31.0214 359.761 30.9167 359.559 30.7073C359.154 30.2885 358.545 29.7371 357.717 29.1877C356.055 28.0857 353.519 27 350 27C346.481 27 343.945 28.0857 342.283 29.1877C341.455 29.7371 340.846 30.2885 340.441 30.7073C340.239 30.9167 340.087 31.0934 339.983 31.2206C339.932 31.2842 339.91 31.3125 339.865 31.3724C339.713 31.5711 339.497 31.8969 339.497 31.8969L341.879 34.1892L342.331 33.6558L342.331 33.6556L342.331 33.6555L342.334 33.6518C342.338 33.6475 342.344 33.6403 342.353 33.6301C342.382 33.598 342.412 33.5664 342.441 33.5353C342.522 33.451 342.646 33.3268 342.811 33.1759C343.143 32.8739 343.642 32.467 344.296 32.0592C345.604 31.2439 347.528 30.43 350 30.43C352.472 30.43 354.395 31.2439 355.704 32.0592C356.358 32.467 356.857 32.8739 357.189 33.1759C357.354 33.3268 357.478 33.451 357.559 33.5353C357.588 33.5664 357.618 33.598 357.647 33.6301C357.656 33.6403 357.662 33.6475 357.666 33.6518L357.667 33.6535L357.669 33.6556L357.669 33.6556L357.669 33.6558L358.121 34.1892L360.503 31.8969Z" fill="white"/>
<circle cx="316.5" cy="39.5" r="2.5" fill="#4F4F5F"/>
<circle cx="307" cy="39.5" r="2.5" fill="#4F4F5F"/>
<circle cx="297.5" cy="39.5" r="2.5" fill="#4F4F5F"/>
<g clip-path="url(#clip2_255_68)">
<rect x="381" y="30" width="23" height="10.5" rx="3" stroke="white" stroke-width="2"/>
<path d="M406 33.6142C406 33.275 406.295 32.9976 406.574 33.1903C406.756 33.3159 406.921 33.5001 407.061 33.7322C407.2 33.9644 407.31 34.24 407.386 34.5433C407.461 34.8466 407.5 35.1717 407.5 35.5C407.5 35.8283 407.461 36.1534 407.386 36.4567C407.31 36.76 407.2 37.0356 407.061 37.2678C406.921 37.4999 406.756 37.6841 406.574 37.8097C406.295 38.0024 406 37.725 406 37.3858L406 33.6142Z" fill="white"/>
<rect x="383" y="32" width="19" height="6.5" rx="1.5" fill="white"/>
</g>
</g>
<path d="M155.181 351.384C151.725 351.384 148.653 350.488 145.965 348.696C143.277 346.861 141.165 344.259 139.629 340.888C138.093 337.475 137.325 333.379 137.325 328.6C137.325 323.821 138.093 319.747 139.629 316.376C141.165 312.963 143.277 310.36 145.965 308.568C148.653 306.733 151.725 305.816 155.181 305.816C158.637 305.816 161.709 306.733 164.397 308.568C167.086 310.36 169.197 312.963 170.733 316.376C172.312 319.747 173.101 323.821 173.101 328.6C173.101 333.379 172.312 337.475 170.733 340.888C169.197 344.259 167.086 346.861 164.397 348.696C161.709 350.488 158.637 351.384 155.181 351.384ZM155.181 347.16C157.827 347.16 160.131 346.456 162.093 345.048C164.056 343.597 165.592 341.507 166.701 338.776C167.811 336.003 168.365 332.611 168.365 328.6C168.365 324.589 167.811 321.219 166.701 318.488C165.592 315.715 164.056 313.624 162.093 312.216C160.131 310.765 157.827 310.04 155.181 310.04C152.621 310.04 150.339 310.765 148.333 312.216C146.328 313.624 144.771 315.715 143.661 318.488C142.552 321.219 141.997 324.589 141.997 328.6C141.997 332.611 142.552 336.003 143.661 338.776C144.771 341.507 146.328 343.597 148.333 345.048C150.339 346.456 152.621 347.16 155.181 347.16ZM177.652 339.224V335.896L201.396 306.2H206.517L182.964 335.896L180.468 335.128H216.5V339.224H177.652ZM202.933 351V339.224L203.06 335.128V324.76H207.541V351H202.933ZM223.284 324.056C222.345 324.056 221.535 323.715 220.852 323.032C220.212 322.349 219.892 321.517 219.892 320.536C219.892 319.512 220.212 318.68 220.852 318.04C221.535 317.4 222.345 317.08 223.284 317.08C224.223 317.08 225.012 317.4 225.652 318.04C226.335 318.68 226.676 319.512 226.676 320.536C226.676 321.517 226.335 322.349 225.652 323.032C225.012 323.715 224.223 324.056 223.284 324.056ZM223.284 351.32C222.345 351.32 221.535 350.979 220.852 350.296C220.212 349.613 219.892 348.781 219.892 347.8C219.892 346.776 220.212 345.944 220.852 345.304C221.535 344.664 222.345 344.344 223.284 344.344C224.223 344.344 225.012 344.664 225.652 345.304C226.335 345.944 226.676 346.776 226.676 347.8C226.676 348.781 226.335 349.613 225.652 350.296C225.012 350.979 224.223 351.32 223.284 351.32ZM245.487 351.384C242.244 351.384 239.172 350.872 236.271 349.848C233.412 348.781 231.108 347.373 229.359 345.624L231.599 341.976C233.049 343.469 234.991 344.707 237.423 345.688C239.897 346.669 242.585 347.16 245.487 347.16C249.199 347.16 252.036 346.349 253.999 344.728C256.004 343.107 257.007 340.931 257.007 338.2C257.007 335.469 256.025 333.293 254.063 331.672C252.143 330.051 249.092 329.24 244.911 329.24H241.711V325.848L255.535 308.504L256.175 310.296H231.215V306.2H260.015V309.464L246.191 326.808L243.951 325.336H245.679C251.055 325.336 255.065 326.531 257.711 328.92C260.399 331.309 261.743 334.381 261.743 338.136C261.743 340.653 261.145 342.915 259.951 344.92C258.756 346.925 256.943 348.504 254.511 349.656C252.121 350.808 249.113 351.384 245.487 351.384ZM284.812 351.384C281.356 351.384 278.284 350.488 275.596 348.696C272.908 346.861 270.796 344.259 269.26 340.888C267.724 337.475 266.956 333.379 266.956 328.6C266.956 323.821 267.724 319.747 269.26 316.376C270.796 312.963 272.908 310.36 275.596 308.568C278.284 306.733 281.356 305.816 284.812 305.816C288.268 305.816 291.34 306.733 294.028 308.568C296.716 310.36 298.828 312.963 300.364 316.376C301.942 319.747 302.732 323.821 302.732 328.6C302.732 333.379 301.942 337.475 300.364 340.888C298.828 344.259 296.716 346.861 294.028 348.696C291.34 350.488 288.268 351.384 284.812 351.384ZM284.812 347.16C287.457 347.16 289.761 346.456 291.724 345.048C293.686 343.597 295.222 341.507 296.332 338.776C297.441 336.003 297.996 332.611 297.996 328.6C297.996 324.589 297.441 321.219 296.332 318.488C295.222 315.715 293.686 313.624 291.724 312.216C289.761 310.765 287.457 310.04 284.812 310.04C282.252 310.04 279.969 310.765 277.964 312.216C275.958 313.624 274.401 315.715 273.292 318.488C272.182 321.219 271.628 324.589 271.628 328.6C271.628 332.611 272.182 336.003 273.292 338.776C274.401 341.507 275.958 343.597 277.964 345.048C279.969 346.456 282.252 347.16 284.812 347.16Z" fill="white"/>
<line x1="440" y1="869.5" x2="2" y2="869.5" stroke="#ECEBE4"/>
<path d="M202.545 556C201.624 555.998 200.719 555.758 199.919 555.302C198.119 554.286 197 552.313 197 550.171V506.829C197 504.681 198.119 502.715 199.919 501.698C200.738 501.23 201.668 500.989 202.612 501C203.556 501.012 204.479 501.276 205.286 501.765L242.468 523.939C243.243 524.423 243.882 525.095 244.325 525.892C244.768 526.69 245 527.586 245 528.497C245 529.408 244.768 530.305 244.325 531.102C243.882 531.899 243.243 532.571 242.468 533.056L205.28 555.235C204.454 555.732 203.509 555.996 202.545 556Z" fill="#ECEBE4"/>
<path d="M152.848 514.333C152.848 514.333 155.986 512.788 144.606 512.788C140.531 512.788 136.547 513.996 133.158 516.261C129.769 518.525 127.128 521.743 125.569 525.508C124.009 529.274 123.601 533.417 124.396 537.414C125.191 541.411 127.154 545.083 130.035 547.965C132.917 550.846 136.589 552.809 140.586 553.604C144.583 554.399 148.726 553.991 152.492 552.431C156.257 550.872 159.475 548.231 161.739 544.842C164.004 541.453 165.212 537.469 165.212 533.394" stroke="#ECEBE4" stroke-width="5.36616" stroke-miterlimit="10" stroke-linecap="round"/>
<path d="M144.606 503L154.909 513.303L144.606 523.606" stroke="#ECEBE4" stroke-width="5.36616" stroke-linecap="round" stroke-linejoin="round"/>
<path d="M283.875 514.312C283.875 511.577 284.961 508.954 286.895 507.02C288.829 505.086 291.452 504 294.188 504H321.688C324.423 504 327.046 505.086 328.98 507.02C330.914 508.954 332 511.577 332 514.312V541.812C332 544.548 330.914 547.171 328.98 549.105C327.046 551.039 324.423 552.125 321.688 552.125H309.312C310.632 549.547 311.375 546.625 311.375 543.531C311.375 538.959 309.752 534.766 307.054 531.5H316.531C316.987 531.5 317.424 531.319 317.747 530.997C318.069 530.674 318.25 530.237 318.25 529.781C318.25 529.325 318.069 528.888 317.747 528.566C317.424 528.244 316.987 528.062 316.531 528.062H307.938V516.031C307.938 515.575 307.756 515.138 307.434 514.816C307.112 514.494 306.675 514.312 306.219 514.312C305.763 514.312 305.326 514.494 305.003 514.816C304.681 515.138 304.5 515.575 304.5 516.031V528.946C301.116 526.147 296.86 524.619 292.469 524.625C289.375 524.625 286.453 525.368 283.875 526.688V514.312ZM307.938 543.531C307.938 547.634 306.308 551.568 303.407 554.469C300.506 557.37 296.571 559 292.469 559C288.366 559 284.432 557.37 281.531 554.469C278.63 551.568 277 547.634 277 543.531C277 539.429 278.63 535.494 281.531 532.593C284.432 529.692 288.366 528.062 292.469 528.062C296.571 528.062 300.506 529.692 303.407 532.593C306.308 535.494 307.938 539.429 307.938 543.531ZM300.561 537.158C300.401 536.998 300.211 536.871 300.002 536.784C299.794 536.698 299.57 536.653 299.344 536.653C299.118 536.653 298.894 536.698 298.685 536.784C298.476 536.871 298.287 536.998 298.127 537.158L289.031 546.257L286.811 544.033C286.488 543.71 286.05 543.529 285.594 543.529C285.137 543.529 284.7 543.71 284.377 544.033C284.054 544.356 283.873 544.794 283.873 545.25C283.873 545.706 284.054 546.144 284.377 546.467L287.814 549.904C287.974 550.064 288.164 550.191 288.373 550.278C288.581 550.365 288.805 550.409 289.031 550.409C289.257 550.409 289.481 550.365 289.69 550.278C289.899 550.191 290.088 550.064 290.248 549.904L300.561 539.592C300.721 539.432 300.848 539.243 300.934 539.034C301.021 538.825 301.066 538.601 301.066 538.375C301.066 538.149 301.021 537.925 300.934 537.716C300.848 537.507 300.721 537.318 300.561 537.158Z" fill="#ECEBE4"/>
</g>
<defs>
<clipPath id="clip0_255_68">
<rect width="440" height="956" rx="62" fill="white"/>
</clipPath>
<clipPath id="clip1_255_68">
<rect width="126" height="20" fill="white" transform="translate(282 22)"/>
</clipPath>
<clipPath id="clip2_255_68">
<rect width="28" height="13" fill="white" transform="translate(380 29)"/>
</clipPath>
</defs>
</svg>
