<svg width="440" height="956" viewBox="0 0 440 956" fill="none" xmlns="http://www.w3.org/2000/svg">
<g clip-path="url(#clip0_236_3)">
<rect width="440" height="956" rx="62" fill="#1C1C1C"/>
<rect width="440" height="86" transform="matrix(1 0 0 -1 2 956)" fill="#2B2B2B"/>
<path d="M114.527 937V929.031H111.407V927.9H118.934V929.031H115.814V937H114.527ZM120.168 937V930.11H121.416V937H120.168ZM120.792 928.784C120.55 928.784 120.346 928.706 120.181 928.55C120.025 928.394 119.947 928.203 119.947 927.978C119.947 927.744 120.025 927.549 120.181 927.393C120.346 927.237 120.55 927.159 120.792 927.159C121.035 927.159 121.234 927.237 121.39 927.393C121.555 927.54 121.637 927.727 121.637 927.952C121.637 928.186 121.559 928.385 121.403 928.55C121.247 928.706 121.044 928.784 120.792 928.784ZM123.799 937V930.11H124.995V931.943L124.8 931.475C125.017 931.024 125.351 930.673 125.801 930.422C126.252 930.171 126.776 930.045 127.374 930.045C128.033 930.045 128.601 930.21 129.077 930.539C129.554 930.86 129.866 931.349 130.013 932.008L129.506 931.8C129.714 931.271 130.078 930.847 130.598 930.526C131.118 930.205 131.725 930.045 132.418 930.045C132.973 930.045 133.463 930.153 133.887 930.37C134.312 930.587 134.641 930.916 134.875 931.358C135.118 931.8 135.239 932.359 135.239 933.035V937H133.991V933.178C133.991 932.511 133.835 932.008 133.523 931.67C133.211 931.332 132.774 931.163 132.21 931.163C131.794 931.163 131.43 931.25 131.118 931.423C130.806 931.596 130.564 931.852 130.39 932.19C130.226 932.528 130.143 932.948 130.143 933.451V937H128.895V933.178C128.895 932.511 128.739 932.008 128.427 931.67C128.124 931.332 127.686 931.163 127.114 931.163C126.707 931.163 126.347 931.25 126.035 931.423C125.723 931.596 125.481 931.852 125.307 932.19C125.134 932.528 125.047 932.948 125.047 933.451V937H123.799ZM140.604 937.078C139.867 937.078 139.217 936.926 138.654 936.623C138.099 936.32 137.666 935.904 137.354 935.375C137.05 934.846 136.899 934.24 136.899 933.555C136.899 932.87 137.046 932.264 137.341 931.735C137.644 931.206 138.056 930.795 138.576 930.5C139.104 930.197 139.698 930.045 140.357 930.045C141.024 930.045 141.613 930.192 142.125 930.487C142.636 930.782 143.035 931.198 143.321 931.735C143.615 932.264 143.763 932.883 143.763 933.594C143.763 933.646 143.758 933.707 143.75 933.776C143.75 933.845 143.745 933.91 143.737 933.971H137.874V933.074H143.087L142.58 933.386C142.588 932.944 142.497 932.55 142.307 932.203C142.116 931.856 141.852 931.588 141.514 931.397C141.184 931.198 140.799 931.098 140.357 931.098C139.923 931.098 139.538 931.198 139.2 931.397C138.862 931.588 138.597 931.861 138.407 932.216C138.216 932.563 138.121 932.961 138.121 933.412V933.62C138.121 934.079 138.225 934.491 138.433 934.855C138.649 935.21 138.948 935.488 139.33 935.687C139.711 935.886 140.149 935.986 140.643 935.986C141.05 935.986 141.418 935.917 141.748 935.778C142.086 935.639 142.38 935.431 142.632 935.154L143.321 935.96C143.009 936.324 142.619 936.601 142.151 936.792C141.691 936.983 141.176 937.078 140.604 937.078ZM145.496 937V930.11H146.692V931.982L146.575 931.514C146.765 931.037 147.086 930.673 147.537 930.422C147.987 930.171 148.542 930.045 149.201 930.045V931.254C149.149 931.245 149.097 931.241 149.045 931.241C149.001 931.241 148.958 931.241 148.915 931.241C148.247 931.241 147.719 931.44 147.329 931.839C146.939 932.238 146.744 932.814 146.744 933.568V937H145.496Z" fill="#ECEBE4"/>
<path fill-rule="evenodd" clip-rule="evenodd" d="M123.851 887.14C123.825 887.404 123.812 887.691 123.812 888C123.812 888.309 123.825 888.596 123.851 888.86C124.05 890.98 125.957 891.93 127.578 891.97C128.025 891.98 128.565 891.989 129.218 891.995V922.667C129.218 923.02 129.36 923.359 129.614 923.609C129.867 923.86 130.211 924 130.569 924C133.553 924 136.487 923.251 139.096 921.822C141.705 920.393 143.902 918.333 145.48 915.835C147.058 913.337 147.965 910.483 148.116 907.544C148.267 904.604 147.657 901.675 146.343 899.032C146.828 898.549 147.307 898.06 147.78 897.565C149.05 896.234 149.58 894.12 148.124 892.417C147.806 892.047 147.473 891.691 147.124 891.35C146.778 891.006 146.417 890.677 146.043 890.364C144.316 888.927 142.174 889.449 140.823 890.702C140.49 891.012 140.1 891.381 139.643 891.824C138.715 891.272 137.737 890.805 136.721 890.431C137.024 890.004 137.229 889.483 137.288 888.86C137.313 888.596 137.326 888.309 137.327 888C137.326 887.691 137.313 887.404 137.288 887.14C137.089 885.02 135.181 884.07 133.561 884.03C132.836 884.012 131.865 884 130.569 884C129.274 884 128.302 884.012 127.578 884.03C125.956 884.07 124.05 885.02 123.851 887.14ZM118.564 894.311C118.343 894.52 118.127 894.733 117.916 894.95C116.844 896.055 117.012 897.599 118.022 898.647C118.492 899.136 118.976 899.612 119.471 900.076C120.534 901.072 122.098 901.24 123.219 900.181C123.439 899.973 123.655 899.759 123.867 899.541C124.939 898.436 124.77 896.893 123.76 895.845C123.29 895.357 122.806 894.88 122.311 894.415C121.248 893.42 119.684 893.252 118.564 894.311ZM113 906.667C113 906.492 113.002 906.327 113.005 906.173C113.038 904.62 114.271 903.601 115.776 903.565C116.328 903.552 116.88 903.552 117.432 903.565C118.937 903.601 120.17 904.62 120.202 906.173C120.209 906.502 120.209 906.831 120.202 907.16C120.17 908.714 118.937 909.732 117.432 909.768C116.88 909.781 116.328 909.781 115.776 909.768C114.271 909.732 113.038 908.713 113.005 907.16C113.002 906.996 113 906.831 113 906.667ZM123.866 914.045C123.655 913.828 123.439 913.615 123.218 913.406C122.098 912.348 120.534 912.515 119.472 913.51C118.976 913.975 118.492 914.452 118.021 914.941C117.012 915.989 116.844 917.532 117.916 918.637C118.127 918.855 118.343 919.069 118.564 919.277C119.684 920.335 121.249 920.168 122.311 919.172C122.807 918.708 123.29 918.231 123.761 917.742C124.77 916.693 124.939 915.15 123.867 914.045" fill="#ECEBE4"/>
<path d="M267.176 937.104C266.482 937.104 265.819 937 265.187 936.792C264.554 936.575 264.056 936.298 263.692 935.96L264.173 934.946C264.519 935.249 264.961 935.501 265.499 935.7C266.036 935.899 266.595 935.999 267.176 935.999C267.704 935.999 268.133 935.938 268.463 935.817C268.792 935.696 269.035 935.531 269.191 935.323C269.347 935.106 269.425 934.864 269.425 934.595C269.425 934.283 269.321 934.032 269.113 933.841C268.913 933.65 268.649 933.499 268.32 933.386C267.999 933.265 267.644 933.161 267.254 933.074C266.864 932.987 266.469 932.888 266.071 932.775C265.681 932.654 265.321 932.502 264.992 932.32C264.671 932.138 264.411 931.895 264.212 931.592C264.012 931.28 263.913 930.881 263.913 930.396C263.913 929.928 264.034 929.499 264.277 929.109C264.528 928.71 264.909 928.394 265.421 928.16C265.941 927.917 266.599 927.796 267.397 927.796C267.925 927.796 268.45 927.865 268.97 928.004C269.49 928.143 269.94 928.342 270.322 928.602L269.893 929.642C269.503 929.382 269.091 929.196 268.658 929.083C268.224 928.962 267.804 928.901 267.397 928.901C266.885 928.901 266.465 928.966 266.136 929.096C265.806 929.226 265.564 929.399 265.408 929.616C265.26 929.833 265.187 930.075 265.187 930.344C265.187 930.665 265.286 930.92 265.486 931.111C265.694 931.302 265.958 931.453 266.279 931.566C266.608 931.679 266.968 931.783 267.358 931.878C267.748 931.965 268.138 932.064 268.528 932.177C268.926 932.29 269.286 932.437 269.607 932.619C269.936 932.801 270.2 933.044 270.4 933.347C270.599 933.65 270.699 934.04 270.699 934.517C270.699 934.976 270.573 935.405 270.322 935.804C270.07 936.194 269.68 936.51 269.152 936.753C268.632 936.987 267.973 937.104 267.176 937.104ZM275.315 937.078C274.726 937.078 274.206 936.97 273.755 936.753C273.313 936.536 272.966 936.207 272.715 935.765C272.472 935.314 272.351 934.751 272.351 934.075V930.11H273.599V933.932C273.599 934.608 273.759 935.115 274.08 935.453C274.409 935.791 274.869 935.96 275.458 935.96C275.891 935.96 276.268 935.873 276.589 935.7C276.91 935.518 277.157 935.258 277.33 934.92C277.503 934.573 277.59 934.157 277.59 933.672V930.11H278.838V937H277.655V935.141L277.85 935.635C277.625 936.094 277.287 936.45 276.836 936.701C276.385 936.952 275.878 937.078 275.315 937.078ZM281.214 937V930.11H282.41V931.943L282.215 931.475C282.431 931.024 282.765 930.673 283.216 930.422C283.666 930.171 284.191 930.045 284.789 930.045C285.447 930.045 286.015 930.21 286.492 930.539C286.968 930.86 287.28 931.349 287.428 932.008L286.921 931.8C287.129 931.271 287.493 930.847 288.013 930.526C288.533 930.205 289.139 930.045 289.833 930.045C290.387 930.045 290.877 930.153 291.302 930.37C291.726 930.587 292.056 930.916 292.29 931.358C292.532 931.8 292.654 932.359 292.654 933.035V937H291.406V933.178C291.406 932.511 291.25 932.008 290.938 931.67C290.626 931.332 290.188 931.163 289.625 931.163C289.209 931.163 288.845 931.25 288.533 931.423C288.221 931.596 287.978 931.852 287.805 932.19C287.64 932.528 287.558 932.948 287.558 933.451V937H286.31V933.178C286.31 932.511 286.154 932.008 285.842 931.67C285.538 931.332 285.101 931.163 284.529 931.163C284.121 931.163 283.762 931.25 283.45 931.423C283.138 931.596 282.895 931.852 282.722 932.19C282.548 932.528 282.462 932.948 282.462 933.451V937H281.214ZM294.95 937V930.11H296.146V931.943L295.951 931.475C296.168 931.024 296.501 930.673 296.952 930.422C297.403 930.171 297.927 930.045 298.525 930.045C299.184 930.045 299.751 930.21 300.228 930.539C300.705 930.86 301.017 931.349 301.164 932.008L300.657 931.8C300.865 931.271 301.229 930.847 301.749 930.526C302.269 930.205 302.876 930.045 303.569 930.045C304.124 930.045 304.613 930.153 305.038 930.37C305.463 930.587 305.792 930.916 306.026 931.358C306.269 931.8 306.39 932.359 306.39 933.035V937H305.142V933.178C305.142 932.511 304.986 932.008 304.674 931.67C304.362 931.332 303.924 931.163 303.361 931.163C302.945 931.163 302.581 931.25 302.269 931.423C301.957 931.596 301.714 931.852 301.541 932.19C301.376 932.528 301.294 932.948 301.294 933.451V937H300.046V933.178C300.046 932.511 299.89 932.008 299.578 931.67C299.275 931.332 298.837 931.163 298.265 931.163C297.858 931.163 297.498 931.25 297.186 931.423C296.874 931.596 296.631 931.852 296.458 932.19C296.285 932.528 296.198 932.948 296.198 933.451V937H294.95ZM312.963 937V935.544L312.898 935.271V932.788C312.898 932.259 312.742 931.852 312.43 931.566C312.127 931.271 311.668 931.124 311.052 931.124C310.645 931.124 310.246 931.193 309.856 931.332C309.466 931.462 309.137 931.64 308.868 931.865L308.348 930.929C308.704 930.643 309.128 930.426 309.622 930.279C310.125 930.123 310.649 930.045 311.195 930.045C312.14 930.045 312.868 930.275 313.379 930.734C313.891 931.193 314.146 931.895 314.146 932.84V937H312.963ZM310.701 937.078C310.19 937.078 309.739 936.991 309.349 936.818C308.968 936.645 308.673 936.406 308.465 936.103C308.257 935.791 308.153 935.44 308.153 935.05C308.153 934.677 308.24 934.339 308.413 934.036C308.595 933.733 308.886 933.49 309.284 933.308C309.692 933.126 310.238 933.035 310.922 933.035H313.106V933.932H310.974C310.35 933.932 309.93 934.036 309.713 934.244C309.497 934.452 309.388 934.703 309.388 934.998C309.388 935.336 309.523 935.609 309.791 935.817C310.06 936.016 310.433 936.116 310.909 936.116C311.377 936.116 311.785 936.012 312.131 935.804C312.487 935.596 312.742 935.293 312.898 934.894L313.145 935.752C312.981 936.159 312.69 936.484 312.274 936.727C311.858 936.961 311.334 937.078 310.701 937.078ZM316.456 937V930.11H317.652V931.982L317.535 931.514C317.726 931.037 318.046 930.673 318.497 930.422C318.948 930.171 319.502 930.045 320.161 930.045V931.254C320.109 931.245 320.057 931.241 320.005 931.241C319.962 931.241 319.918 931.241 319.875 931.241C319.208 931.241 318.679 931.44 318.289 931.839C317.899 932.238 317.704 932.814 317.704 933.568V937H316.456ZM322.062 939.6C321.732 939.6 321.412 939.544 321.1 939.431C320.788 939.327 320.519 939.171 320.294 938.963L320.827 938.027C321 938.192 321.191 938.317 321.399 938.404C321.607 938.491 321.828 938.534 322.062 938.534C322.365 938.534 322.616 938.456 322.816 938.3C323.015 938.144 323.201 937.867 323.375 937.468L323.804 936.519L323.934 936.363L326.638 930.11H327.86L324.519 937.689C324.319 938.174 324.094 938.556 323.843 938.833C323.6 939.11 323.331 939.305 323.037 939.418C322.742 939.539 322.417 939.6 322.062 939.6ZM323.7 937.221L320.554 930.11H321.854L324.532 936.246L323.7 937.221Z" fill="#A5ACA0"/>
<path d="M301.152 887.857H304.979C306.075 887.857 307.126 888.283 307.901 889.042C308.676 889.802 309.111 890.831 309.111 891.904V902.144C307.614 902.149 306.12 902.715 304.986 903.843L296.166 912.618H286.021C285.699 912.618 285.389 912.743 285.161 912.967C284.934 913.19 284.806 913.493 284.806 913.808C284.806 914.124 284.934 914.427 285.161 914.65C285.389 914.873 285.699 914.999 286.021 914.999H293.773L291.849 916.913C291.25 917.509 290.822 918.248 290.608 919.058L289.793 922.138C289.709 922.462 289.666 922.781 289.665 923.094H282.132C281.036 923.094 279.985 922.667 279.21 921.908C278.435 921.149 278 920.12 278 919.046V891.904C278 890.831 278.435 889.802 279.21 889.042C279.985 888.283 281.036 887.857 282.132 887.857H285.96C286.22 887.03 286.743 886.306 287.454 885.791C288.165 885.277 289.026 885 289.91 885H297.201C298.085 885 298.946 885.277 299.657 885.791C300.368 886.306 300.892 887.03 301.152 887.857ZM288.208 889.047C288.208 889.967 288.971 890.714 289.91 890.714H297.201C297.425 890.714 297.646 890.671 297.852 890.587C298.059 890.503 298.246 890.381 298.404 890.226C298.562 890.071 298.688 889.887 298.773 889.685C298.859 889.483 298.903 889.266 298.903 889.047C298.903 888.829 298.859 888.612 298.773 888.41C298.688 888.207 298.562 888.024 298.404 887.869C298.246 887.714 298.059 887.591 297.852 887.508C297.646 887.424 297.425 887.381 297.201 887.381H289.91C289.458 887.381 289.026 887.556 288.707 887.869C288.388 888.182 288.208 888.605 288.208 889.047ZM284.806 900.476C284.806 901.133 285.35 901.666 286.021 901.666H301.09C301.25 901.666 301.408 901.635 301.555 901.575C301.703 901.516 301.837 901.428 301.95 901.317C302.062 901.207 302.152 901.076 302.213 900.931C302.274 900.787 302.306 900.632 302.306 900.476C302.306 900.319 302.274 900.164 302.213 900.02C302.152 899.876 302.062 899.744 301.95 899.634C301.837 899.523 301.703 899.436 301.555 899.376C301.408 899.316 301.25 899.285 301.09 899.285H286.021C285.35 899.285 284.806 899.818 284.806 900.476ZM286.021 905.951C285.699 905.951 285.389 906.077 285.161 906.3C284.934 906.523 284.806 906.826 284.806 907.142C284.806 907.458 284.934 907.76 285.161 907.984C285.389 908.207 285.699 908.332 286.021 908.332H293.312C293.635 908.332 293.944 908.207 294.172 907.984C294.4 907.76 294.528 907.458 294.528 907.142C294.528 906.826 294.4 906.523 294.172 906.3C293.944 906.077 293.635 905.951 293.312 905.951H286.021ZM311.866 905.159C311.505 904.805 311.076 904.525 310.604 904.334C310.131 904.143 309.625 904.046 309.114 904.048C308.604 904.05 308.098 904.151 307.627 904.345C307.157 904.54 306.73 904.823 306.371 905.18L293.236 918.249C292.876 918.606 292.619 919.05 292.49 919.536L291.675 922.616C291.303 924.022 292.61 925.301 294.045 924.937L297.19 924.138C297.685 924.012 298.138 923.761 298.503 923.409L311.845 910.542C312.209 910.191 312.498 909.773 312.697 909.312C312.895 908.851 312.998 908.356 313 907.855C313.002 907.355 312.903 906.859 312.708 906.397C312.514 905.934 312.228 905.514 311.866 905.16" fill="#A5ACA0"/>
<rect x="119" y="528" width="201" height="40" rx="7.5" fill="#2B2B2B"/>
<rect x="119" y="584" width="201" height="40" rx="7.5" fill="#2B2B2B"/>
<rect x="53" y="688" width="100" height="40" rx="7.5" fill="#2B2B2B"/>
<rect x="169" y="688" width="100" height="40" rx="7.5" fill="#2B2B2B"/>
<rect x="285" y="688" width="100" height="40" rx="7.5" fill="#2B2B2B"/>
<circle cx="220.5" cy="328.5" r="124.75" stroke="#2B2B2B" stroke-width="21.5"/>
<rect x="157" y="11" width="125" height="37" rx="18.5" fill="black"/>
<path d="M37.7058 22.7231C38.3477 22.7231 38.9565 22.8421 39.532 23.0801C40.1075 23.3125 40.6166 23.6777 41.0593 24.1758C41.5076 24.6683 41.859 25.3019 42.1135 26.0767C42.3681 26.8459 42.4954 27.7728 42.4954 28.8574V28.874C42.4954 30.2188 42.3017 31.3698 41.9143 32.3271C41.5269 33.2845 40.9708 34.0205 40.2458 34.5352C39.5264 35.0443 38.6659 35.2988 37.6643 35.2988C36.9283 35.2988 36.2642 35.166 35.6721 34.9004C35.0855 34.6292 34.5985 34.2585 34.2112 33.7881C33.8293 33.3122 33.572 32.7699 33.4392 32.1611L33.4226 32.0698H35.5227L35.5559 32.1528C35.661 32.4295 35.8105 32.673 36.0041 32.8833C36.2034 33.0936 36.4413 33.2568 36.718 33.373C37.0002 33.4837 37.3157 33.5391 37.6643 33.5391C38.2952 33.5391 38.8098 33.3537 39.2082 32.9829C39.6122 32.6066 39.9138 32.1058 40.113 31.4805C40.3178 30.8496 40.434 30.1523 40.4617 29.3887C40.4672 29.3057 40.47 29.2254 40.47 29.1479C40.47 29.0649 40.47 28.9847 40.47 28.9072L40.0964 26.9067C40.0964 26.453 39.9913 26.0407 39.781 25.6699C39.5707 25.2992 39.2857 25.0059 38.926 24.79C38.5718 24.5742 38.1706 24.4663 37.7224 24.4663C37.2908 24.4663 36.8951 24.5715 36.5354 24.7817C36.1757 24.992 35.8879 25.2798 35.6721 25.645C35.4563 26.0047 35.3484 26.4087 35.3484 26.8569V26.8735C35.3484 27.3384 35.4508 27.7507 35.6555 28.1104C35.8603 28.4645 36.1397 28.744 36.4939 28.9487C36.8481 29.1535 37.252 29.2559 37.7058 29.2559C38.1596 29.2559 38.5663 29.1562 38.926 28.957C39.2857 28.7578 39.5707 28.4811 39.781 28.127C39.9913 27.7728 40.0964 27.3716 40.0964 26.9233V26.9067H40.5945V29.1147H40.3039C40.1601 29.4302 39.947 29.7235 39.6648 29.9946C39.3826 30.2658 39.0339 30.4844 38.6189 30.6504C38.2094 30.8164 37.7279 30.8994 37.1746 30.8994C36.4109 30.8994 35.7357 30.7279 35.1492 30.3848C34.5626 30.0417 34.1005 29.5713 33.7629 28.9736C33.4309 28.376 33.2649 27.7008 33.2649 26.9482V26.9316C33.2649 26.1182 33.453 25.396 33.8293 24.7651C34.2112 24.1287 34.7369 23.6307 35.4065 23.271C36.0816 22.9058 36.8481 22.7231 37.7058 22.7231ZM45.9239 33.3896C45.5476 33.3896 45.2322 33.2651 44.9776 33.0161C44.7286 32.7616 44.6041 32.4517 44.6041 32.0864C44.6041 31.7157 44.7286 31.4058 44.9776 31.1567C45.2322 30.9022 45.5476 30.7749 45.9239 30.7749C46.3057 30.7749 46.6212 30.9022 46.8702 31.1567C47.1192 31.4058 47.2437 31.7157 47.2437 32.0864C47.2437 32.4517 47.1192 32.7616 46.8702 33.0161C46.6212 33.2651 46.3057 33.3896 45.9239 33.3896ZM45.9239 27.2305C45.5476 27.2305 45.2322 27.106 44.9776 26.8569C44.7286 26.6024 44.6041 26.2925 44.6041 25.9272C44.6041 25.5565 44.7286 25.2466 44.9776 24.9976C45.2322 24.743 45.5476 24.6157 45.9239 24.6157C46.3057 24.6157 46.6212 24.743 46.8702 24.9976C47.1192 25.2466 47.2437 25.5565 47.2437 25.9272C47.2437 26.2925 47.1192 26.6024 46.8702 26.8569C46.6212 27.106 46.3057 27.2305 45.9239 27.2305ZM53.9179 35.2407C53.0435 35.2407 52.2771 35.0941 51.6186 34.8008C50.9656 34.5075 50.4482 34.1007 50.0663 33.5806C49.69 33.0549 49.4742 32.4489 49.4189 31.7627L49.4106 31.6631H51.4526L51.4609 31.7544C51.4996 32.092 51.6241 32.3936 51.8344 32.6592C52.0447 32.9193 52.3269 33.124 52.6811 33.2734C53.0352 33.4173 53.4475 33.4893 53.9179 33.4893C54.3772 33.4893 54.7784 33.409 55.1215 33.2485C55.4701 33.0881 55.7413 32.8667 55.935 32.5845C56.1287 32.3022 56.2255 31.9757 56.2255 31.605V31.5884C56.2255 30.9575 56.0069 30.4733 55.5697 30.1357C55.1326 29.7982 54.5294 29.6294 53.7602 29.6294H52.3407V28.0356H53.7187C54.1558 28.0356 54.5404 27.9582 54.8725 27.8032C55.2045 27.6483 55.4618 27.438 55.6445 27.1724C55.8271 26.9012 55.9184 26.5913 55.9184 26.2427V26.2261C55.9184 25.8553 55.8381 25.5399 55.6777 25.2798C55.5227 25.0197 55.2931 24.8205 54.9887 24.6821C54.6899 24.5438 54.3274 24.4746 53.9013 24.4746C53.4807 24.4746 53.1072 24.5465 52.7807 24.6904C52.4597 24.8343 52.2024 25.0391 52.0087 25.3047C51.815 25.5648 51.6988 25.8719 51.6601 26.2261L51.6518 26.3091H49.6679L49.6762 26.2095C49.7371 25.5177 49.9474 24.9173 50.3071 24.4082C50.6723 23.8936 51.1593 23.4951 51.768 23.2129C52.3822 22.9251 53.0933 22.7812 53.9013 22.7812C54.7258 22.7812 55.4425 22.9168 56.0512 23.188C56.6599 23.4536 57.1303 23.8216 57.4623 24.292C57.7999 24.7624 57.9687 25.313 57.9687 25.9438V25.9604C57.9687 26.453 57.858 26.8901 57.6366 27.272C57.4208 27.6483 57.122 27.9609 56.7402 28.21C56.3639 28.459 55.935 28.6333 55.4535 28.7329V28.7744C56.339 28.8574 57.0501 29.1507 57.5868 29.6543C58.1236 30.1523 58.392 30.8164 58.392 31.6465V31.6631C58.392 32.3604 58.2039 32.9801 57.8276 33.5225C57.4513 34.0592 56.9255 34.4798 56.2504 34.7842C55.5808 35.0885 54.8033 35.2407 53.9179 35.2407ZM60.3596 35V33.5557L64.2859 29.5381C64.8282 28.9902 65.2488 28.5392 65.5476 28.1851C65.852 27.8254 66.065 27.5099 66.1868 27.2388C66.3085 26.9621 66.3694 26.6715 66.3694 26.3672V26.3423C66.3694 25.9771 66.2892 25.6506 66.1287 25.3628C65.9682 25.075 65.7385 24.8509 65.4397 24.6904C65.1409 24.5244 64.7839 24.4414 64.3689 24.4414C63.9483 24.4414 63.5776 24.5299 63.2566 24.707C62.9356 24.8786 62.6866 25.1193 62.5095 25.4292C62.3324 25.7391 62.2439 26.1016 62.2439 26.5166L62.2356 26.5498L60.2434 26.5415L60.2351 26.5166C60.2351 25.7695 60.415 25.111 60.7747 24.541C61.1344 23.971 61.6324 23.5256 62.2688 23.2046C62.9052 22.8836 63.6412 22.7231 64.4768 22.7231C65.2516 22.7231 65.9405 22.8698 66.5437 23.1631C67.1524 23.4564 67.6283 23.8604 67.9714 24.375C68.3145 24.8896 68.4861 25.4845 68.4861 26.1597V26.1846C68.4861 26.6328 68.4003 27.0728 68.2288 27.5044C68.0572 27.9305 67.7639 28.3981 67.3489 28.9072C66.9394 29.4163 66.3722 30.0223 65.6472 30.7251L62.6838 33.6055L63.2483 32.6592V33.6055L62.6838 33.2319H68.6687V35H60.3596Z" fill="white"/>
<g clip-path="url(#clip1_236_3)">
<path fill-rule="evenodd" clip-rule="evenodd" d="M353.355 38.7671C353.181 38.4203 352.901 38.1235 352.838 38.0569C352.713 37.924 352.529 37.7535 352.281 37.5849C351.779 37.2444 351.027 36.9207 350 36.9207C348.974 36.9207 348.221 37.2444 347.72 37.5849C347.471 37.7535 347.287 37.924 347.162 38.0569C347.111 38.1108 347.063 38.1669 347.017 38.225C346.999 38.247 346.84 38.4203 346.645 38.7671L350 42.0156L353.355 38.7671Z" fill="white"/>
<path fill-rule="evenodd" clip-rule="evenodd" d="M356.944 35.3402C356.944 35.3402 356.616 34.9205 356.3 34.5636C356.054 34.2866 355.557 33.837 355.032 33.4815C353.975 32.7658 352.41 32.0424 350 32.0424C347.59 32.0424 346.025 32.7658 344.969 33.4815C344.443 33.837 344.114 34.1163 343.784 34.4732C343.455 34.83 343.057 35.3402 343.057 35.3402L345.38 37.5798L345.833 37.0716L345.84 37.0633C345.849 37.0547 345.863 37.0398 345.883 37.0197C345.946 36.9582 346.01 36.8991 346.077 36.8422C346.253 36.6907 346.521 36.4839 346.875 36.2758C347.584 35.8605 348.634 35.4424 350 35.4424C351.366 35.4424 352.417 35.8605 353.125 36.2758C353.48 36.4839 353.748 36.6907 353.924 36.8422C353.99 36.8991 354.055 36.9582 354.117 37.0197C354.137 37.0398 354.152 37.0547 354.16 37.0633L354.168 37.0716L354.168 37.072L354.62 37.5798L356.944 35.3402Z" fill="white"/>
<path fill-rule="evenodd" clip-rule="evenodd" d="M360.503 31.8969C360.503 31.8969 360.318 31.5539 360.017 31.2206C359.836 31.0214 359.761 30.9167 359.559 30.7073C359.154 30.2885 358.545 29.7371 357.717 29.1877C356.055 28.0857 353.519 27 350 27C346.481 27 343.945 28.0857 342.283 29.1877C341.455 29.7371 340.846 30.2885 340.441 30.7073C340.239 30.9167 340.087 31.0934 339.983 31.2206C339.932 31.2842 339.91 31.3125 339.865 31.3724C339.713 31.5711 339.497 31.8969 339.497 31.8969L341.879 34.1892L342.331 33.6558L342.331 33.6556L342.331 33.6555L342.334 33.6518C342.338 33.6475 342.344 33.6403 342.353 33.6301C342.382 33.598 342.412 33.5664 342.441 33.5353C342.522 33.451 342.646 33.3268 342.811 33.1759C343.143 32.8739 343.642 32.467 344.296 32.0592C345.604 31.2439 347.528 30.43 350 30.43C352.472 30.43 354.396 31.2439 355.704 32.0592C356.358 32.467 356.857 32.8739 357.189 33.1759C357.354 33.3268 357.478 33.451 357.559 33.5353C357.588 33.5664 357.618 33.598 357.647 33.6301C357.656 33.6403 357.662 33.6475 357.666 33.6518L357.667 33.6535L357.669 33.6556L357.669 33.6556L357.669 33.6558L358.121 34.1892L360.503 31.8969Z" fill="white"/>
<circle cx="316.5" cy="39.5" r="2.5" fill="#4F4F5F"/>
<circle cx="307" cy="39.5" r="2.5" fill="#4F4F5F"/>
<circle cx="297.5" cy="39.5" r="2.5" fill="#4F4F5F"/>
<g clip-path="url(#clip2_236_3)">
<rect x="381" y="30" width="23" height="10.5" rx="3" stroke="white" stroke-width="2"/>
<path d="M406 33.6142C406 33.275 406.295 32.9976 406.574 33.1903C406.756 33.3159 406.921 33.5001 407.061 33.7322C407.2 33.9644 407.31 34.24 407.386 34.5433C407.461 34.8466 407.5 35.1717 407.5 35.5C407.5 35.8283 407.461 36.1534 407.386 36.4567C407.31 36.76 407.2 37.0356 407.061 37.2678C406.921 37.4999 406.756 37.6841 406.574 37.8097C406.295 38.0024 406 37.725 406 37.3858L406 33.6142Z" fill="white"/>
<rect x="383" y="32" width="19" height="6.5" rx="1.5" fill="white"/>
</g>
</g>
<path d="M166.264 335.64V331.672H183.032V335.64H166.264ZM189.421 335.64V331.672H206.189V335.64H189.421ZM220.003 324.056C219.064 324.056 218.253 323.715 217.571 323.032C216.931 322.349 216.611 321.517 216.611 320.536C216.611 319.512 216.931 318.68 217.571 318.04C218.253 317.4 219.064 317.08 220.003 317.08C220.941 317.08 221.731 317.4 222.371 318.04C223.053 318.68 223.395 319.512 223.395 320.536C223.395 321.517 223.053 322.349 222.371 323.032C221.731 323.715 220.941 324.056 220.003 324.056ZM220.003 351.32C219.064 351.32 218.253 350.979 217.571 350.296C216.931 349.613 216.611 348.781 216.611 347.8C216.611 346.776 216.931 345.944 217.571 345.304C218.253 344.664 219.064 344.344 220.003 344.344C220.941 344.344 221.731 344.664 222.371 345.304C223.053 345.944 223.395 346.776 223.395 347.8C223.395 348.781 223.053 349.613 222.371 350.296C221.731 350.979 220.941 351.32 220.003 351.32ZM233.821 335.64V331.672H250.589V335.64H233.821ZM256.979 335.64V331.672H273.747V335.64H256.979Z" fill="white"/>
<line x1="440" y1="869.5" x2="2" y2="869.5" stroke="#ECEBE4"/>
<path d="M133.1 547.26H140.5L140.26 548.52H132.86L133.1 547.26ZM131.96 553.72H140.38L140.12 555H130.24L133.04 541H142.64L142.38 542.28H134.24L131.96 553.72ZM150.539 544.4C151.486 544.4 152.259 544.587 152.859 544.96C153.472 545.32 153.892 545.847 154.119 546.54C154.359 547.233 154.379 548.06 154.179 549.02L152.979 555H151.559L152.759 549C152.972 547.96 152.859 547.147 152.419 546.56C151.992 545.973 151.232 545.68 150.139 545.68C149.019 545.68 148.086 545.987 147.339 546.6C146.606 547.213 146.112 548.133 145.859 549.36L144.739 555H143.319L145.399 544.5H146.759L146.159 547.52L145.859 547C146.366 546.093 147.019 545.433 147.819 545.02C148.632 544.607 149.539 544.4 150.539 544.4ZM160.175 555.1C159.575 555.1 159.061 554.973 158.635 554.72C158.208 554.453 157.908 554.08 157.735 553.6C157.575 553.12 157.561 552.547 157.695 551.88L159.615 542.18H161.035L159.115 551.82C158.981 552.473 159.028 552.98 159.255 553.34C159.495 553.7 159.928 553.88 160.555 553.88C160.848 553.88 161.135 553.84 161.415 553.76C161.695 553.667 161.948 553.527 162.175 553.34L162.515 554.42C162.181 554.673 161.808 554.853 161.395 554.96C160.981 555.053 160.575 555.1 160.175 555.1ZM157.055 545.68L157.275 544.5H163.775L163.535 545.68H157.055ZM169.408 555.1C168.408 555.1 167.535 554.92 166.788 554.56C166.055 554.187 165.488 553.667 165.088 553C164.701 552.333 164.508 551.54 164.508 550.62C164.508 549.42 164.761 548.353 165.268 547.42C165.775 546.487 166.468 545.753 167.348 545.22C168.228 544.673 169.221 544.4 170.328 544.4C171.261 544.4 172.068 544.58 172.748 544.94C173.428 545.287 173.955 545.793 174.328 546.46C174.715 547.127 174.908 547.927 174.908 548.86C174.908 549.073 174.895 549.293 174.868 549.52C174.841 549.733 174.808 549.94 174.768 550.14H165.548L165.728 549.08H174.108L173.528 549.48C173.661 548.64 173.601 547.933 173.348 547.36C173.095 546.787 172.701 546.353 172.168 546.06C171.648 545.753 171.021 545.6 170.288 545.6C169.435 545.6 168.675 545.813 168.008 546.24C167.341 546.653 166.821 547.233 166.448 547.98C166.075 548.713 165.888 549.573 165.888 550.56C165.888 551.613 166.188 552.427 166.788 553C167.401 553.56 168.315 553.84 169.528 553.84C170.235 553.84 170.888 553.727 171.488 553.5C172.088 553.26 172.581 552.933 172.968 552.52L173.608 553.54C173.115 554.033 172.495 554.42 171.748 554.7C171.015 554.967 170.235 555.1 169.408 555.1ZM176.678 555L178.758 544.5H180.118L179.518 547.6L179.358 547.06C179.825 546.14 180.438 545.467 181.198 545.04C181.972 544.613 182.932 544.4 184.078 544.4L183.818 545.78C183.752 545.78 183.685 545.78 183.618 545.78C183.565 545.767 183.498 545.76 183.418 545.76C182.298 545.76 181.372 546.087 180.638 546.74C179.918 547.38 179.425 548.353 179.158 549.66L178.098 555H176.678ZM190.24 555L193.04 541H194.24L201.3 553.22L200.84 553.14L203.26 541H204.72L201.92 555H200.72L193.66 542.78L194.12 542.86L191.7 555H190.24ZM210.69 555.1C209.796 555.1 209.003 554.92 208.31 554.56C207.616 554.2 207.076 553.687 206.69 553.02C206.303 552.353 206.11 551.56 206.11 550.64C206.11 549.747 206.256 548.92 206.55 548.16C206.843 547.4 207.256 546.74 207.79 546.18C208.323 545.607 208.95 545.167 209.67 544.86C210.403 544.553 211.196 544.4 212.05 544.4C212.97 544.4 213.75 544.567 214.39 544.9C215.03 545.22 215.523 545.693 215.87 546.32C216.216 546.933 216.39 547.68 216.39 548.56C216.39 549.827 216.156 550.953 215.69 551.94C215.223 552.927 214.563 553.7 213.71 554.26C212.856 554.82 211.85 555.1 210.69 555.1ZM210.99 553.84C211.87 553.84 212.65 553.633 213.33 553.22C214.023 552.793 214.563 552.207 214.95 551.46C215.35 550.713 215.55 549.867 215.55 548.92C215.55 547.88 215.243 547.073 214.63 546.5C214.03 545.927 213.183 545.64 212.09 545.64C211.223 545.64 210.443 545.853 209.75 546.28C209.056 546.707 208.51 547.293 208.11 548.04C207.723 548.773 207.53 549.62 207.53 550.58C207.53 551.607 207.83 552.407 208.43 552.98C209.043 553.553 209.896 553.84 210.99 553.84ZM214.45 555L215.05 551.98L215.65 549.86L215.85 547.66L216.49 544.5H217.91L215.81 555H214.45ZM234.724 544.4C235.671 544.4 236.438 544.587 237.024 544.96C237.624 545.32 238.038 545.847 238.264 546.54C238.491 547.233 238.504 548.06 238.304 549.02L237.104 555H235.684L236.884 549C237.098 547.96 236.998 547.147 236.584 546.56C236.184 545.973 235.451 545.68 234.384 545.68C233.331 545.68 232.444 545.973 231.724 546.56C231.018 547.147 230.544 548.027 230.304 549.2L229.144 555H227.724L228.924 549C229.138 547.96 229.038 547.147 228.624 546.56C228.211 545.973 227.478 545.68 226.424 545.68C225.344 545.68 224.451 545.987 223.744 546.6C223.038 547.213 222.558 548.133 222.304 549.36L221.184 555H219.764L221.844 544.5H223.204L222.604 547.52L222.304 547C222.811 546.093 223.451 545.433 224.224 545.02C224.998 544.607 225.871 544.4 226.844 544.4C227.578 544.4 228.204 544.527 228.724 544.78C229.258 545.02 229.671 545.38 229.964 545.86C230.271 546.327 230.438 546.887 230.464 547.54L229.724 547.38C230.244 546.38 230.931 545.633 231.784 545.14C232.651 544.647 233.631 544.4 234.724 544.4ZM245.775 555.1C244.775 555.1 243.902 554.92 243.155 554.56C242.422 554.187 241.855 553.667 241.455 553C241.068 552.333 240.875 551.54 240.875 550.62C240.875 549.42 241.128 548.353 241.635 547.42C242.142 546.487 242.835 545.753 243.715 545.22C244.595 544.673 245.588 544.4 246.695 544.4C247.628 544.4 248.435 544.58 249.115 544.94C249.795 545.287 250.322 545.793 250.695 546.46C251.082 547.127 251.275 547.927 251.275 548.86C251.275 549.073 251.262 549.293 251.235 549.52C251.208 549.733 251.175 549.94 251.135 550.14H241.915L242.095 549.08H250.475L249.895 549.48C250.028 548.64 249.968 547.933 249.715 547.36C249.462 546.787 249.068 546.353 248.535 546.06C248.015 545.753 247.388 545.6 246.655 545.6C245.802 545.6 245.042 545.813 244.375 546.24C243.708 546.653 243.188 547.233 242.815 547.98C242.442 548.713 242.255 549.573 242.255 550.56C242.255 551.613 242.555 552.427 243.155 553C243.768 553.56 244.682 553.84 245.895 553.84C246.602 553.84 247.255 553.727 247.855 553.5C248.455 553.26 248.948 552.933 249.335 552.52L249.975 553.54C249.482 554.033 248.862 554.42 248.115 554.7C247.382 554.967 246.602 555.1 245.775 555.1ZM253.345 555.1C253.052 555.1 252.805 555 252.605 554.8C252.405 554.6 252.305 554.353 252.305 554.06C252.305 553.727 252.419 553.453 252.645 553.24C252.872 553.027 253.132 552.92 253.425 552.92C253.719 552.92 253.959 553.02 254.145 553.22C254.345 553.407 254.445 553.653 254.445 553.96C254.445 554.187 254.392 554.387 254.285 554.56C254.192 554.72 254.059 554.853 253.885 554.96C253.712 555.053 253.532 555.1 253.345 555.1ZM257.584 555.1C257.29 555.1 257.044 555 256.844 554.8C256.644 554.6 256.544 554.353 256.544 554.06C256.544 553.727 256.657 553.453 256.884 553.24C257.11 553.027 257.37 552.92 257.664 552.92C257.957 552.92 258.197 553.02 258.384 553.22C258.584 553.407 258.684 553.653 258.684 553.96C258.684 554.187 258.63 554.387 258.524 554.56C258.43 554.72 258.297 554.853 258.124 554.96C257.95 555.053 257.77 555.1 257.584 555.1ZM261.822 555.1C261.529 555.1 261.282 555 261.082 554.8C260.882 554.6 260.782 554.353 260.782 554.06C260.782 553.727 260.895 553.453 261.122 553.24C261.349 553.027 261.609 552.92 261.902 552.92C262.195 552.92 262.435 553.02 262.622 553.22C262.822 553.407 262.922 553.653 262.922 553.96C262.922 554.187 262.869 554.387 262.762 554.56C262.669 554.72 262.535 554.853 262.362 554.96C262.189 555.053 262.009 555.1 261.822 555.1Z" fill="#A4ACA0"/>
<path d="M93 715.312V712.432L104.04 698H108.488L97.608 712.432L95.528 711.792H113.288V715.312H93ZM105.288 720.4V715.312L105.416 711.792V707.28H109.32V720.4H105.288Z" fill="#ECEBE4"/>
<path d="M219.416 719.72C217.837 719.72 216.291 719.496 214.776 719.048C213.283 718.579 212.024 717.939 211 717.128L212.76 713.896C213.571 714.557 214.552 715.091 215.704 715.496C216.877 715.901 218.093 716.104 219.352 716.104C220.824 716.104 221.976 715.795 222.808 715.176C223.661 714.557 224.088 713.725 224.088 712.68C224.088 711.976 223.907 711.357 223.544 710.824C223.203 710.291 222.584 709.885 221.688 709.608C220.813 709.331 219.608 709.192 218.072 709.192H212.664L213.816 697H226.968V700.488H215.352L217.528 698.504L216.664 707.624L214.488 705.672H219C221.219 705.672 223 705.971 224.344 706.568C225.709 707.144 226.701 707.955 227.32 709C227.96 710.024 228.28 711.197 228.28 712.52C228.28 713.821 227.96 715.016 227.32 716.104C226.68 717.192 225.699 718.067 224.376 718.728C223.075 719.389 221.421 719.72 219.416 719.72Z" fill="#ECEBE4"/>
<path d="M335.696 720.04C333.669 720.04 331.931 719.613 330.48 718.76C329.029 717.885 327.92 716.627 327.152 714.984C326.384 713.341 326 711.315 326 708.904C326 706.344 326.459 704.179 327.376 702.408C328.315 700.637 329.605 699.293 331.248 698.376C332.912 697.459 334.821 697 336.976 697C338.107 697 339.184 697.117 340.208 697.352C341.253 697.587 342.139 697.949 342.864 698.44L341.328 701.576C340.709 701.171 340.037 700.893 339.312 700.744C338.608 700.573 337.861 700.488 337.072 700.488C334.96 700.488 333.285 701.139 332.048 702.44C330.811 703.741 330.192 705.661 330.192 708.2C330.192 708.605 330.203 709.085 330.224 709.64C330.245 710.173 330.32 710.717 330.448 711.272L329.168 709.864C329.552 708.989 330.075 708.264 330.736 707.688C331.419 707.091 332.219 706.643 333.136 706.344C334.075 706.045 335.088 705.896 336.176 705.896C337.648 705.896 338.96 706.184 340.112 706.76C341.264 707.315 342.181 708.115 342.864 709.16C343.547 710.184 343.888 711.389 343.888 712.776C343.888 714.248 343.525 715.528 342.8 716.616C342.075 717.704 341.093 718.547 339.856 719.144C338.619 719.741 337.232 720.04 335.696 720.04ZM335.472 716.776C336.325 716.776 337.083 716.627 337.744 716.328C338.405 716.008 338.917 715.56 339.28 714.984C339.664 714.408 339.856 713.736 339.856 712.968C339.856 711.795 339.451 710.867 338.64 710.184C337.829 709.501 336.741 709.16 335.376 709.16C334.48 709.16 333.691 709.331 333.008 709.672C332.347 709.992 331.813 710.44 331.408 711.016C331.024 711.592 330.832 712.253 330.832 713C330.832 713.683 331.013 714.312 331.376 714.888C331.739 715.464 332.261 715.923 332.944 716.264C333.648 716.605 334.491 716.776 335.472 716.776Z" fill="#ECEBE4"/>
<path d="M136.82 611.12C135.433 611.12 134.253 610.88 133.28 610.4C132.307 609.907 131.56 609.227 131.04 608.36C130.533 607.48 130.28 606.46 130.28 605.3C130.28 604.153 130.473 603.073 130.86 602.06C131.26 601.047 131.827 600.153 132.56 599.38C133.307 598.593 134.2 597.98 135.24 597.54C136.293 597.1 137.48 596.88 138.8 596.88C139.92 596.88 140.913 597.053 141.78 597.4C142.647 597.747 143.313 598.253 143.78 598.92L142.74 599.84C142.3 599.293 141.747 598.887 141.08 598.62C140.413 598.34 139.613 598.2 138.68 598.2C137.627 598.2 136.667 598.387 135.8 598.76C134.947 599.12 134.22 599.627 133.62 600.28C133.02 600.933 132.553 601.687 132.22 602.54C131.9 603.38 131.74 604.28 131.74 605.24C131.74 606.133 131.933 606.927 132.32 607.62C132.72 608.3 133.307 608.833 134.08 609.22C134.853 609.607 135.8 609.8 136.92 609.8C137.84 609.8 138.673 609.66 139.42 609.38C140.167 609.1 140.82 608.687 141.38 608.14L142.24 609.12C141.627 609.773 140.847 610.273 139.9 610.62C138.953 610.953 137.927 611.12 136.82 611.12ZM148.363 611.1C147.443 611.1 146.677 610.913 146.063 610.54C145.463 610.167 145.05 609.633 144.823 608.94C144.597 608.247 144.57 607.427 144.743 606.48L145.943 600.5H147.363L146.163 606.48C145.963 607.52 146.077 608.34 146.503 608.94C146.93 609.527 147.677 609.82 148.743 609.82C149.85 609.82 150.77 609.513 151.503 608.9C152.25 608.287 152.75 607.367 153.003 606.14L154.123 600.5H155.543L153.443 611H152.083L152.683 607.98L152.983 608.48C152.49 609.387 151.837 610.053 151.023 610.48C150.223 610.893 149.337 611.1 148.363 611.1ZM160.461 611.1C159.608 611.1 158.801 610.98 158.041 610.74C157.281 610.5 156.694 610.193 156.281 609.82L156.961 608.7C157.361 609.06 157.888 609.347 158.541 609.56C159.194 609.76 159.881 609.86 160.601 609.86C161.601 609.86 162.368 609.693 162.901 609.36C163.448 609.027 163.721 608.567 163.721 607.98C163.721 607.58 163.574 607.28 163.281 607.08C163.001 606.867 162.634 606.707 162.181 606.6C161.728 606.48 161.248 606.367 160.741 606.26C160.234 606.153 159.754 606.02 159.301 605.86C158.848 605.687 158.474 605.427 158.181 605.08C157.901 604.733 157.761 604.267 157.761 603.68C157.761 603.013 157.948 602.433 158.321 601.94C158.708 601.447 159.241 601.067 159.921 600.8C160.601 600.533 161.401 600.4 162.321 600.4C162.988 600.4 163.648 600.487 164.301 600.66C164.954 600.833 165.481 601.073 165.881 601.38L165.281 602.52C164.868 602.2 164.388 601.973 163.841 601.84C163.294 601.693 162.748 601.62 162.201 601.62C161.228 601.62 160.474 601.8 159.941 602.16C159.421 602.507 159.161 602.967 159.161 603.54C159.161 603.94 159.301 604.247 159.581 604.46C159.874 604.673 160.248 604.84 160.701 604.96C161.154 605.08 161.634 605.193 162.141 605.3C162.661 605.393 163.141 605.527 163.581 605.7C164.034 605.873 164.401 606.127 164.681 606.46C164.974 606.78 165.121 607.233 165.121 607.82C165.121 608.513 164.928 609.107 164.541 609.6C164.154 610.08 163.608 610.453 162.901 610.72C162.208 610.973 161.394 611.1 160.461 611.1ZM170.507 611.1C169.907 611.1 169.393 610.973 168.967 610.72C168.54 610.453 168.24 610.08 168.067 609.6C167.907 609.12 167.893 608.547 168.027 607.88L169.947 598.18H171.367L169.447 607.82C169.313 608.473 169.36 608.98 169.587 609.34C169.827 609.7 170.26 609.88 170.887 609.88C171.18 609.88 171.467 609.84 171.747 609.76C172.027 609.667 172.28 609.527 172.507 609.34L172.847 610.42C172.513 610.673 172.14 610.853 171.727 610.96C171.313 611.053 170.907 611.1 170.507 611.1ZM167.387 601.68L167.607 600.5H174.107L173.867 601.68H167.387ZM179.62 611.1C178.647 611.1 177.8 610.92 177.08 610.56C176.373 610.187 175.82 609.667 175.42 609C175.033 608.333 174.84 607.547 174.84 606.64C174.84 605.44 175.1 604.373 175.62 603.44C176.14 602.493 176.86 601.753 177.78 601.22C178.7 600.673 179.747 600.4 180.92 600.4C181.893 600.4 182.733 600.58 183.44 600.94C184.16 601.3 184.713 601.813 185.1 602.48C185.5 603.147 185.7 603.933 185.7 604.84C185.7 606.04 185.44 607.113 184.92 608.06C184.4 608.993 183.68 609.733 182.76 610.28C181.853 610.827 180.807 611.1 179.62 611.1ZM179.72 609.84C180.6 609.84 181.38 609.633 182.06 609.22C182.753 608.793 183.293 608.207 183.68 607.46C184.08 606.713 184.28 605.867 184.28 604.92C184.28 603.88 183.973 603.073 183.36 602.5C182.76 601.927 181.913 601.64 180.82 601.64C179.953 601.64 179.173 601.853 178.48 602.28C177.787 602.707 177.24 603.293 176.84 604.04C176.453 604.773 176.26 605.62 176.26 606.58C176.26 607.607 176.56 608.407 177.16 608.98C177.773 609.553 178.627 609.84 179.72 609.84ZM202.439 600.4C203.386 600.4 204.152 600.587 204.739 600.96C205.339 601.32 205.752 601.847 205.979 602.54C206.206 603.233 206.219 604.06 206.019 605.02L204.819 611H203.399L204.599 605C204.812 603.96 204.712 603.147 204.299 602.56C203.899 601.973 203.166 601.68 202.099 601.68C201.046 601.68 200.159 601.973 199.439 602.56C198.732 603.147 198.259 604.027 198.019 605.2L196.859 611H195.439L196.639 605C196.852 603.96 196.752 603.147 196.339 602.56C195.926 601.973 195.192 601.68 194.139 601.68C193.059 601.68 192.166 601.987 191.459 602.6C190.752 603.213 190.272 604.133 190.019 605.36L188.899 611H187.479L189.559 600.5H190.919L190.319 603.52L190.019 603C190.526 602.093 191.166 601.433 191.939 601.02C192.712 600.607 193.586 600.4 194.559 600.4C195.292 600.4 195.919 600.527 196.439 600.78C196.972 601.02 197.386 601.38 197.679 601.86C197.986 602.327 198.152 602.887 198.179 603.54L197.439 603.38C197.959 602.38 198.646 601.633 199.499 601.14C200.366 600.647 201.346 600.4 202.439 600.4ZM216.944 611L219.484 598.28H214.544L214.804 597H226.124L225.864 598.28H220.944L218.404 611H216.944ZM225.409 611L227.489 600.5H228.909L226.829 611H225.409ZM228.789 598.18C228.509 598.18 228.275 598.087 228.089 597.9C227.915 597.713 227.829 597.493 227.829 597.24C227.829 596.947 227.929 596.693 228.129 596.48C228.342 596.267 228.609 596.16 228.929 596.16C229.222 596.16 229.455 596.247 229.629 596.42C229.815 596.593 229.909 596.813 229.909 597.08C229.909 597.4 229.802 597.667 229.589 597.88C229.389 598.08 229.122 598.18 228.789 598.18ZM245.74 600.4C246.687 600.4 247.453 600.587 248.04 600.96C248.64 601.32 249.053 601.847 249.28 602.54C249.507 603.233 249.52 604.06 249.32 605.02L248.12 611H246.7L247.9 605C248.113 603.96 248.013 603.147 247.6 602.56C247.2 601.973 246.467 601.68 245.4 601.68C244.347 601.68 243.46 601.973 242.74 602.56C242.033 603.147 241.56 604.027 241.32 605.2L240.16 611H238.74L239.94 605C240.153 603.96 240.053 603.147 239.64 602.56C239.227 601.973 238.493 601.68 237.44 601.68C236.36 601.68 235.467 601.987 234.76 602.6C234.053 603.213 233.573 604.133 233.32 605.36L232.2 611H230.78L232.86 600.5H234.22L233.62 603.52L233.32 603C233.827 602.093 234.467 601.433 235.24 601.02C236.013 600.607 236.887 600.4 237.86 600.4C238.593 600.4 239.22 600.527 239.74 600.78C240.273 601.02 240.687 601.38 240.98 601.86C241.287 602.327 241.453 602.887 241.48 603.54L240.74 603.38C241.26 602.38 241.947 601.633 242.8 601.14C243.667 600.647 244.647 600.4 245.74 600.4ZM256.791 611.1C255.791 611.1 254.917 610.92 254.171 610.56C253.437 610.187 252.871 609.667 252.471 609C252.084 608.333 251.891 607.54 251.891 606.62C251.891 605.42 252.144 604.353 252.651 603.42C253.157 602.487 253.851 601.753 254.731 601.22C255.611 600.673 256.604 600.4 257.711 600.4C258.644 600.4 259.451 600.58 260.131 600.94C260.811 601.287 261.337 601.793 261.711 602.46C262.097 603.127 262.291 603.927 262.291 604.86C262.291 605.073 262.277 605.293 262.251 605.52C262.224 605.733 262.191 605.94 262.151 606.14H252.931L253.111 605.08H261.491L260.911 605.48C261.044 604.64 260.984 603.933 260.731 603.36C260.477 602.787 260.084 602.353 259.551 602.06C259.031 601.753 258.404 601.6 257.671 601.6C256.817 601.6 256.057 601.813 255.391 602.24C254.724 602.653 254.204 603.233 253.831 603.98C253.457 604.713 253.271 605.573 253.271 606.56C253.271 607.613 253.571 608.427 254.171 609C254.784 609.56 255.697 609.84 256.911 609.84C257.617 609.84 258.271 609.727 258.871 609.5C259.471 609.26 259.964 608.933 260.351 608.52L260.991 609.54C260.497 610.033 259.877 610.42 259.131 610.7C258.397 610.967 257.617 611.1 256.791 611.1Z" fill="#ECEBE4"/>
<path d="M80.8708 678.12C79.4974 678.12 78.3241 677.88 77.3508 677.4C76.3774 676.907 75.6308 676.227 75.1108 675.36C74.5908 674.48 74.3308 673.46 74.3308 672.3C74.3308 671.153 74.5241 670.073 74.9108 669.06C75.3108 668.047 75.8774 667.153 76.6108 666.38C77.3574 665.593 78.2574 664.98 79.3108 664.54C80.3641 664.1 81.5508 663.88 82.8708 663.88C84.0441 663.88 85.0708 664.06 85.9508 664.42C86.8441 664.767 87.5508 665.267 88.0708 665.92L87.0308 666.82C86.5508 666.26 85.9574 665.853 85.2508 665.6C84.5574 665.333 83.7441 665.2 82.8108 665.2C81.7308 665.2 80.7574 665.387 79.8908 665.76C79.0374 666.12 78.3041 666.62 77.6908 667.26C77.0908 667.9 76.6241 668.647 76.2908 669.5C75.9574 670.353 75.7908 671.267 75.7908 672.24C75.7908 673.133 75.9841 673.927 76.3708 674.62C76.7708 675.3 77.3574 675.833 78.1308 676.22C78.9174 676.607 79.8841 676.8 81.0308 676.8C81.8708 676.8 82.6374 676.66 83.3308 676.38C84.0374 676.1 84.6908 675.7 85.2908 675.18L85.8908 676.38C85.2508 676.913 84.4908 677.34 83.6108 677.66C82.7441 677.967 81.8308 678.12 80.8708 678.12ZM84.5308 676.16L85.5508 671H86.9708L85.8908 676.38L84.5308 676.16ZM89.4595 678L91.5395 667.5H92.8995L92.2995 670.6L92.1395 670.06C92.6062 669.14 93.2195 668.467 93.9795 668.04C94.7529 667.613 95.7129 667.4 96.8595 667.4L96.5995 668.78C96.5329 668.78 96.4662 668.78 96.3995 668.78C96.3462 668.767 96.2795 668.76 96.1995 668.76C95.0795 668.76 94.1529 669.087 93.4195 669.74C92.6995 670.38 92.2062 671.353 91.9395 672.66L90.8795 678H89.4595ZM102.033 678.1C101.033 678.1 100.16 677.92 99.413 677.56C98.6796 677.187 98.113 676.667 97.713 676C97.3263 675.333 97.133 674.54 97.133 673.62C97.133 672.42 97.3863 671.353 97.893 670.42C98.3996 669.487 99.093 668.753 99.973 668.22C100.853 667.673 101.846 667.4 102.953 667.4C103.886 667.4 104.693 667.58 105.373 667.94C106.053 668.287 106.58 668.793 106.953 669.46C107.34 670.127 107.533 670.927 107.533 671.86C107.533 672.073 107.52 672.293 107.493 672.52C107.466 672.733 107.433 672.94 107.393 673.14H98.173L98.353 672.08H106.733L106.153 672.48C106.286 671.64 106.226 670.933 105.973 670.36C105.72 669.787 105.326 669.353 104.793 669.06C104.273 668.753 103.646 668.6 102.913 668.6C102.06 668.6 101.3 668.813 100.633 669.24C99.9663 669.653 99.4463 670.233 99.073 670.98C98.6996 671.713 98.513 672.573 98.513 673.56C98.513 674.613 98.813 675.427 99.413 676C100.026 676.56 100.94 676.84 102.153 676.84C102.86 676.84 103.513 676.727 104.113 676.5C104.713 676.26 105.206 675.933 105.593 675.52L106.233 676.54C105.74 677.033 105.12 677.42 104.373 677.7C103.64 677.967 102.86 678.1 102.033 678.1ZM114.103 678.1C113.103 678.1 112.23 677.92 111.483 677.56C110.75 677.187 110.183 676.667 109.783 676C109.397 675.333 109.203 674.54 109.203 673.62C109.203 672.42 109.457 671.353 109.963 670.42C110.47 669.487 111.163 668.753 112.043 668.22C112.923 667.673 113.917 667.4 115.023 667.4C115.957 667.4 116.763 667.58 117.443 667.94C118.123 668.287 118.65 668.793 119.023 669.46C119.41 670.127 119.603 670.927 119.603 671.86C119.603 672.073 119.59 672.293 119.563 672.52C119.537 672.733 119.503 672.94 119.463 673.14H110.243L110.423 672.08H118.803L118.223 672.48C118.357 671.64 118.297 670.933 118.043 670.36C117.79 669.787 117.397 669.353 116.863 669.06C116.343 668.753 115.717 668.6 114.983 668.6C114.13 668.6 113.37 668.813 112.703 669.24C112.037 669.653 111.517 670.233 111.143 670.98C110.77 671.713 110.583 672.573 110.583 673.56C110.583 674.613 110.883 675.427 111.483 676C112.097 676.56 113.01 676.84 114.223 676.84C114.93 676.84 115.583 676.727 116.183 676.5C116.783 676.26 117.277 675.933 117.663 675.52L118.303 676.54C117.81 677.033 117.19 677.42 116.443 677.7C115.71 677.967 114.93 678.1 114.103 678.1ZM128.594 667.4C129.54 667.4 130.314 667.587 130.914 667.96C131.527 668.32 131.947 668.847 132.174 669.54C132.414 670.233 132.434 671.06 132.234 672.02L131.034 678H129.614L130.814 672C131.027 670.96 130.914 670.147 130.474 669.56C130.047 668.973 129.287 668.68 128.194 668.68C127.074 668.68 126.14 668.987 125.394 669.6C124.66 670.213 124.167 671.133 123.914 672.36L122.794 678H121.374L123.454 667.5H124.814L124.214 670.52L123.914 670C124.42 669.093 125.074 668.433 125.874 668.02C126.687 667.607 127.594 667.4 128.594 667.4Z" fill="#5EAE45"/>
<path d="M191.974 678L193.034 672.76L193.194 673.76L189.194 664H190.654L194.154 672.52L193.354 672.54L200.254 664H201.854L193.974 673.78L194.494 672.76L193.434 678H191.974ZM204.869 678.1C203.869 678.1 202.996 677.92 202.249 677.56C201.516 677.187 200.949 676.667 200.549 676C200.162 675.333 199.969 674.54 199.969 673.62C199.969 672.42 200.222 671.353 200.729 670.42C201.236 669.487 201.929 668.753 202.809 668.22C203.689 667.673 204.682 667.4 205.789 667.4C206.722 667.4 207.529 667.58 208.209 667.94C208.889 668.287 209.416 668.793 209.789 669.46C210.176 670.127 210.369 670.927 210.369 671.86C210.369 672.073 210.356 672.293 210.329 672.52C210.302 672.733 210.269 672.94 210.229 673.14H201.009L201.189 672.08H209.569L208.989 672.48C209.122 671.64 209.062 670.933 208.809 670.36C208.556 669.787 208.162 669.353 207.629 669.06C207.109 668.753 206.482 668.6 205.749 668.6C204.896 668.6 204.136 668.813 203.469 669.24C202.802 669.653 202.282 670.233 201.909 670.98C201.536 671.713 201.349 672.573 201.349 673.56C201.349 674.613 201.649 675.427 202.249 676C202.862 676.56 203.776 676.84 204.989 676.84C205.696 676.84 206.349 676.727 206.949 676.5C207.549 676.26 208.042 675.933 208.429 675.52L209.069 676.54C208.576 677.033 207.956 677.42 207.209 677.7C206.476 677.967 205.696 678.1 204.869 678.1ZM212.139 678L215.099 663.16H216.519L213.559 678H212.139ZM217.51 678L220.47 663.16H221.89L218.93 678H217.51ZM227.561 678.1C226.588 678.1 225.741 677.92 225.021 677.56C224.315 677.187 223.761 676.667 223.361 676C222.975 675.333 222.781 674.547 222.781 673.64C222.781 672.44 223.041 671.373 223.561 670.44C224.081 669.493 224.801 668.753 225.721 668.22C226.641 667.673 227.688 667.4 228.861 667.4C229.835 667.4 230.675 667.58 231.381 667.94C232.101 668.3 232.655 668.813 233.041 669.48C233.441 670.147 233.641 670.933 233.641 671.84C233.641 673.04 233.381 674.113 232.861 675.06C232.341 675.993 231.621 676.733 230.701 677.28C229.795 677.827 228.748 678.1 227.561 678.1ZM227.661 676.84C228.541 676.84 229.321 676.633 230.001 676.22C230.695 675.793 231.235 675.207 231.621 674.46C232.021 673.713 232.221 672.867 232.221 671.92C232.221 670.88 231.915 670.073 231.301 669.5C230.701 668.927 229.855 668.64 228.761 668.64C227.895 668.64 227.115 668.853 226.421 669.28C225.728 669.707 225.181 670.293 224.781 671.04C224.395 671.773 224.201 672.62 224.201 673.58C224.201 674.607 224.501 675.407 225.101 675.98C225.715 676.553 226.568 676.84 227.661 676.84ZM237.388 678L235.328 667.5H236.628L238.488 677.24H237.848L243.408 667.5H244.608L246.528 677.24H245.888L251.368 667.5H252.748L246.808 678H245.428L243.548 668.84H243.988L238.748 678H237.388Z" fill="#EACC45"/>
<path d="M316.701 678L319.501 664H324.541C326.128 664 327.354 664.347 328.221 665.04C329.101 665.733 329.541 666.707 329.541 667.96C329.541 669.147 329.274 670.16 328.741 671C328.221 671.827 327.474 672.46 326.501 672.9C325.528 673.34 324.374 673.56 323.041 673.56H318.421L319.201 672.88L318.181 678H316.701ZM326.281 678L323.421 672.92H325.001L327.881 678H326.281ZM319.161 673L318.661 672.28H323.061C324.648 672.28 325.874 671.927 326.741 671.22C327.621 670.513 328.061 669.473 328.061 668.1C328.061 667.18 327.748 666.48 327.121 666C326.494 665.52 325.601 665.28 324.441 665.28H320.101L320.861 664.56L319.161 673ZM335.654 678.1C334.654 678.1 333.781 677.92 333.034 677.56C332.301 677.187 331.734 676.667 331.334 676C330.947 675.333 330.754 674.54 330.754 673.62C330.754 672.42 331.007 671.353 331.514 670.42C332.021 669.487 332.714 668.753 333.594 668.22C334.474 667.673 335.467 667.4 336.574 667.4C337.507 667.4 338.314 667.58 338.994 667.94C339.674 668.287 340.201 668.793 340.574 669.46C340.961 670.127 341.154 670.927 341.154 671.86C341.154 672.073 341.141 672.293 341.114 672.52C341.087 672.733 341.054 672.94 341.014 673.14H331.794L331.974 672.08H340.354L339.774 672.48C339.907 671.64 339.847 670.933 339.594 670.36C339.341 669.787 338.947 669.353 338.414 669.06C337.894 668.753 337.267 668.6 336.534 668.6C335.681 668.6 334.921 668.813 334.254 669.24C333.587 669.653 333.067 670.233 332.694 670.98C332.321 671.713 332.134 672.573 332.134 673.56C332.134 674.613 332.434 675.427 333.034 676C333.647 676.56 334.561 676.84 335.774 676.84C336.481 676.84 337.134 676.727 337.734 676.5C338.334 676.26 338.827 675.933 339.214 675.52L339.854 676.54C339.361 677.033 338.741 677.42 337.994 677.7C337.261 677.967 336.481 678.1 335.654 678.1ZM347.404 678.1C346.511 678.1 345.718 677.92 345.024 677.56C344.331 677.2 343.791 676.687 343.404 676.02C343.018 675.353 342.824 674.56 342.824 673.64C342.824 672.747 342.971 671.92 343.264 671.16C343.558 670.4 343.971 669.74 344.504 669.18C345.038 668.607 345.664 668.167 346.384 667.86C347.118 667.553 347.911 667.4 348.764 667.4C349.684 667.4 350.464 667.567 351.104 667.9C351.744 668.22 352.238 668.693 352.584 669.32C352.931 669.933 353.104 670.68 353.104 671.56C353.104 672.507 352.971 673.38 352.704 674.18C352.451 674.98 352.071 675.673 351.564 676.26C351.058 676.847 350.451 677.3 349.744 677.62C349.051 677.94 348.271 678.1 347.404 678.1ZM347.704 676.84C348.584 676.84 349.364 676.633 350.044 676.22C350.738 675.793 351.278 675.207 351.664 674.46C352.064 673.713 352.264 672.867 352.264 671.92C352.264 670.88 351.958 670.073 351.344 669.5C350.744 668.927 349.898 668.64 348.804 668.64C347.938 668.64 347.158 668.853 346.464 669.28C345.771 669.707 345.224 670.293 344.824 671.04C344.438 671.773 344.244 672.62 344.244 673.58C344.244 674.607 344.544 675.407 345.144 675.98C345.758 676.553 346.611 676.84 347.704 676.84ZM351.164 678L351.764 674.98L352.364 672.86L352.564 670.66L354.064 663.16H355.484L352.524 678H351.164Z" fill="#CA5050"/>
<path d="M304.799 611.5C303.644 613.5 300.757 613.5 299.603 611.5L294.406 602.5C293.252 600.5 294.695 598 297.004 598L307.397 598C309.706 598 311.15 600.5 309.995 602.5L304.799 611.5Z" fill="#ECEBE4"/>
<rect x="145" y="782" width="150" height="48" rx="7.5" fill="#ECEBE4"/>
<path d="M189.952 817.32C188.203 817.32 186.528 817.075 184.928 816.584C183.328 816.072 182.059 815.421 181.12 814.632L182.56 811.4C183.456 812.104 184.565 812.691 185.888 813.16C187.211 813.629 188.565 813.864 189.952 813.864C191.125 813.864 192.075 813.736 192.8 813.48C193.525 813.224 194.059 812.883 194.4 812.456C194.741 812.008 194.912 811.507 194.912 810.952C194.912 810.269 194.667 809.725 194.176 809.32C193.685 808.893 193.045 808.563 192.256 808.328C191.488 808.072 190.624 807.837 189.664 807.624C188.725 807.411 187.776 807.165 186.816 806.888C185.877 806.589 185.013 806.216 184.224 805.768C183.456 805.299 182.827 804.68 182.336 803.912C181.845 803.144 181.6 802.163 181.6 800.968C181.6 799.752 181.92 798.643 182.56 797.64C183.221 796.616 184.213 795.805 185.536 795.208C186.88 794.589 188.576 794.28 190.624 794.28C191.968 794.28 193.301 794.451 194.624 794.792C195.947 795.133 197.099 795.624 198.08 796.264L196.768 799.496C195.765 798.899 194.731 798.461 193.664 798.184C192.597 797.885 191.573 797.736 190.592 797.736C189.44 797.736 188.501 797.875 187.776 798.152C187.072 798.429 186.549 798.792 186.208 799.24C185.888 799.688 185.728 800.2 185.728 800.776C185.728 801.459 185.963 802.013 186.432 802.44C186.923 802.845 187.552 803.165 188.32 803.4C189.109 803.635 189.984 803.869 190.944 804.104C191.904 804.317 192.853 804.563 193.792 804.84C194.752 805.117 195.616 805.48 196.384 805.928C197.173 806.376 197.803 806.984 198.272 807.752C198.763 808.52 199.008 809.491 199.008 810.664C199.008 811.859 198.677 812.968 198.016 813.992C197.376 814.995 196.384 815.805 195.04 816.424C193.696 817.021 192 817.32 189.952 817.32ZM209.181 817.224C207.304 817.224 205.853 816.744 204.829 815.784C203.805 814.803 203.293 813.363 203.293 811.464V796.136H207.293V811.368C207.293 812.179 207.496 812.808 207.901 813.256C208.328 813.704 208.914 813.928 209.661 813.928C210.557 813.928 211.304 813.693 211.901 813.224L213.021 816.072C212.552 816.456 211.976 816.744 211.293 816.936C210.61 817.128 209.906 817.224 209.181 817.224ZM200.477 803.112V799.912H211.869V803.112H200.477ZM226.246 817V813.544L226.022 812.808V806.76C226.022 805.587 225.67 804.68 224.966 804.04C224.262 803.379 223.195 803.048 221.766 803.048C220.806 803.048 219.856 803.197 218.918 803.496C218 803.795 217.222 804.211 216.582 804.744L215.014 801.832C215.931 801.128 217.019 800.605 218.278 800.264C219.558 799.901 220.88 799.72 222.246 799.72C224.72 799.72 226.63 800.317 227.974 801.512C229.339 802.685 230.022 804.509 230.022 806.984V817H226.246ZM220.87 817.224C219.59 817.224 218.47 817.011 217.51 816.584C216.55 816.136 215.803 815.528 215.27 814.76C214.758 813.971 214.502 813.085 214.502 812.104C214.502 811.144 214.726 810.28 215.174 809.512C215.643 808.744 216.4 808.136 217.446 807.688C218.491 807.24 219.878 807.016 221.606 807.016H226.566V809.672H221.894C220.528 809.672 219.611 809.896 219.142 810.344C218.672 810.771 218.438 811.304 218.438 811.944C218.438 812.669 218.726 813.245 219.302 813.672C219.878 814.099 220.678 814.312 221.702 814.312C222.683 814.312 223.558 814.088 224.326 813.64C225.115 813.192 225.68 812.531 226.022 811.656L226.694 814.056C226.31 815.059 225.616 815.837 224.614 816.392C223.632 816.947 222.384 817.224 220.87 817.224ZM235.155 817V799.912H238.963V804.616L238.515 803.24C239.027 802.088 239.827 801.213 240.915 800.616C242.025 800.019 243.401 799.72 245.043 799.72V803.528C244.873 803.485 244.713 803.464 244.563 803.464C244.414 803.443 244.265 803.432 244.115 803.432C242.601 803.432 241.395 803.88 240.499 804.776C239.603 805.651 239.155 806.963 239.155 808.712V817H235.155ZM255.494 817.224C253.616 817.224 252.166 816.744 251.141 815.784C250.118 814.803 249.606 813.363 249.606 811.464V796.136H253.606V811.368C253.606 812.179 253.808 812.808 254.214 813.256C254.64 813.704 255.227 813.928 255.974 813.928C256.87 813.928 257.616 813.693 258.214 813.224L259.334 816.072C258.864 816.456 258.288 816.744 257.606 816.936C256.923 817.128 256.219 817.224 255.494 817.224ZM246.79 803.112V799.912H258.182V803.112H246.79Z" fill="black"/>
</g>
<defs>
<clipPath id="clip0_236_3">
<rect width="440" height="956" rx="62" fill="white"/>
</clipPath>
<clipPath id="clip1_236_3">
<rect width="126" height="20" fill="white" transform="translate(282 22)"/>
</clipPath>
<clipPath id="clip2_236_3">
<rect width="28" height="13" fill="white" transform="translate(380 29)"/>
</clipPath>
</defs>
</svg>
